<?xml version="1.0" encoding="UTF-8"?>
<svg width="30px" height="30px" viewBox="0 0 30 30" version="1.1" xmlns="http://www.w3.org/2000/svg" xmlns:xlink="http://www.w3.org/1999/xlink">
    <title>trivial-type/footer/age-limit</title>
    <g id="trivial-type/footer/age-limit" stroke="none" stroke-width="1" fill="none" fill-rule="evenodd">
        <path d="M18.9602733,0.547441661 L18.9602733,3.28806483 C14.4472875,1.97804044 10.3446217,2.70729328 6.80099292,5.82267467 C4.15221455,8.15133042 2.78467899,11.1572172 2.69044993,14.6900171 C2.50009656,21.8300944 8.46845053,27.8351727 15.9277085,27.2771533 C19.8959306,26.98025 23.043513,25.1114952 25.2553196,21.7991065 C27.470976,18.4809705 27.8364616,14.8659313 26.7124646,11.0849911 C26.7255536,11.0619427 26.729048,11.0525219 26.735326,11.0457674 C26.7419001,11.0386574 26.7511394,11.0292366 26.7593126,11.0291773 C27.5675741,11.0218303 28.3758948,11.0148387 29.1842155,11.0093285 C29.2618612,11.0087952 29.3395069,11.0178013 29.4516223,11.024378 C30.0470245,13.1577448 30.1583699,15.3148116 29.781809,17.4892981 C29.1678691,21.0342442 27.4950219,24.0036921 24.7738097,26.3497674 C19.077956,31.2604925 10.9153856,31.1168698 5.4222636,26.5180976 C-0.227867392,21.7879082 -1.55116089,13.9531802 1.8710539,7.78314898 C5.55658887,1.13852277 12.9525931,-1.17235789 18.9602733,0.547441661 Z M20.0682921,9.79262466 C20.7896832,9.99171957 21.4276502,10.3427296 21.8532378,11.0065421 C22.5428934,12.0823381 22.4092608,13.6102176 21.213317,14.4884446 C21.1593784,14.5279951 21.1018282,14.5621745 21.0241472,14.6131994 C21.1654769,14.6952909 21.2850772,14.7591331 21.3993487,14.8318864 C22.3279089,15.4233118 22.8351444,16.2698008 22.7980801,17.4076081 C22.7667591,18.3690863 22.3190869,19.1043093 21.5438756,19.6334794 C21.033206,19.9821091 20.4633876,20.1787626 19.869057,20.2840473 C18.8593226,20.4630008 17.8495289,20.4412725 16.8533532,20.1735747 C16.334276,20.0341106 15.8548091,19.8058411 15.4237744,19.4682587 C14.2076998,18.5161187 14.0576074,16.7201142 15.0667497,15.5254227 C15.396361,15.1352895 15.7990943,14.8500137 16.2826466,14.6288853 C16.1201205,14.4965012 15.9663571,14.3786434 15.8204092,14.2512031 C14.4591565,13.0620657 14.7009623,11.0449939 16.1892163,10.175922 C16.7028463,9.87593691 17.2582772,9.72554762 17.8422464,9.65090229 C18.5952546,9.55471174 19.3381974,9.59102734 20.0682921,9.79262466 Z M11.9458772,9.60000173 C11.9768352,9.71725988 11.995361,12.2254144 11.9992301,14.7905362 L11.9993492,16.6885913 C11.9965006,18.6263814 11.9841178,20.2341856 11.9610969,20.3539873 C11.6856952,20.4208625 9.48971382,20.4151803 9.20613619,20.3346303 L9.20613619,11.8105057 L7.26027418,11.8105057 C7.18222587,11.5298296 7.18033913,9.87568251 7.25247564,9.60000173 L11.9458772,9.60000173 Z M17.8338388,15.8088064 C17.2450738,15.9660316 16.9037393,16.4150022 16.8866873,17.0149724 C16.8688657,17.642042 17.1798857,18.1124968 17.7754597,18.2938917 C17.9858259,18.357917 18.2079746,18.380744 18.4285247,18.409064 C18.5774922,18.4281678 18.7282359,18.4299989 18.8774402,18.4131533 C19.1171737,18.3859929 19.3498614,18.338447 19.5769244,18.2490923 C20.4601903,17.9013781 20.4728017,16.7566739 20.0769957,16.2522839 C19.8886548,16.0123568 19.6326984,15.8813155 19.3534139,15.8064261 C18.8487835,15.6711123 18.3371074,15.6743472 17.8338388,15.8088064 Z M18.1306489,11.4460523 C17.4824389,11.5767274 17.1510514,11.9813259 17.1676888,12.6539273 C17.1796489,13.1370773 17.3973569,13.4712418 17.8404701,13.6208376 C17.867173,13.6298707 17.8940534,13.6382325 17.9211707,13.6460449 C18.3411335,13.7673207 18.7857861,13.7651235 19.2104264,13.6626463 C19.2567271,13.651477 19.3026726,13.6393311 19.3482628,13.6258425 C19.6238764,13.5441782 19.840045,13.3652247 19.9551455,13.0850148 C20.2029905,12.4818707 20.0176692,11.6492365 19.157376,11.4614941 C18.8177585,11.3873981 18.4770753,11.3762287 18.1306489,11.4460523 Z M25.6947436,1.20164874 C25.7165267,2.22995933 25.6919493,3.22845278 25.7094774,4.25327413 L28.7493941,4.25327413 C28.8193794,4.59502927 28.8150609,6.22222023 28.7467902,6.49774327 L25.7120177,6.49774327 C25.6871862,7.53201728 25.7169077,8.54091501 25.6962043,9.58610083 C24.9513875,9.61115991 24.2283539,9.59365028 23.4877922,9.59866209 C23.4285396,9.23584463 23.4634688,8.89979915 23.4574355,8.56610098 C23.4513388,8.22802539 23.4561019,7.88975949 23.4561019,7.55155702 L23.4561019,6.51506258 L20.4683884,6.51506258 C20.385257,6.26371046 20.3752228,4.59750346 20.4530196,4.266787 L23.452736,4.266787 L23.452736,1.20304443 C24.2131756,1.19822294 24.9363362,1.20025304 25.6947436,1.20164874 Z" id="Combined-Shape" fill="#657381" fill-rule="nonzero"></path>
    </g>
</svg>