<?xml version="1.0" encoding="UTF-8"?>
<svg width="30px" height="30px" viewBox="0 0 30 30" version="1.1" xmlns="http://www.w3.org/2000/svg" xmlns:xlink="http://www.w3.org/1999/xlink">
    <title>trivial-type/footer/gamcare</title>
    <g id="trivial-type/footer/gamcare" stroke="none" stroke-width="1" fill="none" fill-rule="evenodd">
        <path d="M6.07449231,27.8220884 C6.01823115,29.1417803 5.16839155,30 4.03152134,30 C3.43515306,30 2.9228804,29.7607636 2.51780006,29.2878211 C2.18003571,28.896604 2,28.3886363 2,27.8163533 C2,27.2381304 2.2137924,26.7068125 2.62459756,26.2865102 C3.01289826,25.8832084 3.49141422,25.6847323 4.07653026,25.6847323 C4.89261317,25.6847323 5.52293555,26.0997091 5.83247063,26.8176232 L5.11785521,26.8176232 C4.85332906,26.4675761 4.48180801,26.2865102 4.03152134,26.2865102 C3.65447287,26.2865102 3.30565369,26.4378764 3.04112754,26.7182827 C2.75962434,27.0158945 2.60229051,27.4249314 2.60229051,27.8220884 C2.60229051,28.2600057 2.74837211,28.6569579 3.00737085,28.9373643 C3.28314923,29.234976 3.66019769,29.4045717 4.03152134,29.4045717 C4.63381184,29.4045717 5.10640557,29.0715251 5.41041323,28.4060465 L3.59821171,28.4060465 L3.59821171,27.8220884 L6.07449231,27.8220884 Z M7.92990635,26.5491377 L7.35564772,28.1254762 L8.49271534,28.1254762 L7.92990635,26.5491377 Z M6.69729346,29.9183155 L6.08375073,29.9183155 L7.64840315,25.7667035 L8.21121214,25.7667035 L9.77566716,29.9183155 L9.13981737,29.9183155 L8.70078292,28.7098439 L7.14758014,28.7098439 L6.69729346,29.9183155 Z M9.99392097,29.9183565 L9.99392097,25.7665397 L10.8548154,25.7665397 L12.0141901,28.9782065 L13.1735648,25.7665397 L14.0234044,25.7665397 L14.0234044,29.9183565 L13.4775724,29.9183565 L13.5168565,26.3154725 L12.2169277,29.9183565 L11.8061225,29.9183565 L10.511721,26.3154725 L10.5510051,29.9183565 L9.99392097,29.9183565 Z M16.5822803,25.6848962 C17.5164129,25.6848962 18.3153214,26.3214944 18.5743201,27.343165 L17.5164129,27.343165 C17.3026205,26.9343329 16.9816358,26.7184466 16.5878077,26.7184466 C15.9910446,26.7184466 15.5241757,27.1969194 15.5241757,27.8046373 C15.5241757,28.4643808 16.0194713,28.9723485 16.571028,28.9723485 C16.9478791,28.9723485 17.2801161,28.7621974 17.4939085,28.3767154 L18.5575405,28.3767154 C18.2930143,29.3869157 17.5331926,29.999959 16.571028,29.999959 C15.9797924,29.999959 15.4789694,29.7723977 15.0851412,29.3402155 C14.7080928,28.9258531 14.5166074,28.4117406 14.5166074,27.7989021 C14.5166074,27.2266191 14.7248724,26.7010364 15.1244254,26.2981443 C15.5184509,25.8948425 16.0139439,25.6848962 16.5822803,25.6848962 Z M20.8125074,25.7665397 L22.3489306,29.9183565 L21.2683215,29.9183565 L21.0713088,29.3169882 L19.7490728,29.3169882 L19.5463353,29.9183565 L18.4769784,29.9183565 L20.0134016,25.7665397 L20.8125074,25.7665397 Z M20.4127571,27.1271968 L20.0134016,28.4583589 L20.80698,28.4583589 L20.4127571,27.1271968 Z M23.5967241,27.6818647 C24.0807675,27.6818647 24.3168669,27.5532342 24.3168669,27.1796321 C24.3168669,26.8349105 24.1089967,26.6952194 23.6754897,26.6952194 L23.4052387,26.6952194 L23.4052387,27.6818647 L23.5967241,27.6818647 Z M22.4260972,29.9183565 L22.4260972,25.7665397 L23.7542553,25.7665397 C24.1763127,25.7665397 24.4971,25.7958297 24.7675484,25.9943058 C25.1220924,26.2511573 25.3076555,26.6423743 25.3076555,27.156282 C25.3076555,27.8279055 24.9698912,28.3299332 24.4015548,28.4933841 L25.3806963,29.9183565 L24.1705879,29.9183565 L23.4052387,28.5812544 L23.4052387,29.9183565 L22.4260972,29.9183565 Z M25.8243106,29.9183565 L25.8243106,25.7665397 L27.9965836,25.7665397 L27.9965836,26.6835443 L26.8034522,26.6835443 L26.8034522,27.3547581 L27.9965836,27.3547581 L27.9965836,28.277293 L26.8034522,28.277293 L26.8034522,29.0015567 L27.9965836,29.0015567 L27.9965836,29.9183565 L25.8243106,29.9183565 Z M27.2875153,14.3635042 C27.1801256,14.3006227 27.061681,14.2580189 26.934748,14.2397894 C26.904742,14.2346688 26.8751309,14.2334398 26.8449275,14.2303675 C26.8287401,14.2295482 26.8133423,14.2254516 26.7969575,14.2254516 L26.7515537,14.2254516 C26.7112826,14.2244275 26.6710115,14.2223793 26.6311351,14.2254516 L18.8066886,14.2254516 C18.2529603,14.2254516 17.8040555,14.6910204 17.8040555,15.2653517 C17.8040555,15.8398878 18.2529603,16.3056614 18.8066886,16.3056614 L21.8465678,16.3056614 C21.9468508,16.3064807 22.0279853,16.3910737 22.0279853,16.49533 C22.0279853,16.5555487 21.9973872,16.6051165 21.9549445,16.6397321 C20.2882324,17.5632911 18.1443861,18.1232846 15.7987894,18.1232846 C15.2278867,18.1232846 14.6698155,18.088669 14.1265498,18.0253779 L14.1265498,20.3870181 C14.5999332,20.4228626 15.0802258,20.4433452 15.5680199,20.4433452 C18.8325489,20.4433452 21.8023485,19.6152349 24.0283163,18.2623612 L24.0289085,18.2654336 C24.0565456,18.2504813 24.0875385,18.2418787 24.120703,18.2418787 C24.229672,18.2418787 24.3179132,18.3334357 24.3179132,18.4464995 C24.3179132,18.4671869 24.3141624,18.4868502 24.3082402,18.5061038 L23.8445298,19.8128917 C23.6003367,20.5002868 23.9392855,21.262648 24.6019827,21.5158125 C24.7478669,21.5719348 24.897107,21.5981525 25.0439782,21.5981525 C25.5641472,21.5981525 26.0529283,21.2663348 26.2434267,20.7301012 L27.921391,16.0043628 C28.1491994,15.3624391 27.8649325,14.6607062 27.2875153,14.3635042 M15.7987301,5.44037524 C18.1628832,5.44017041 20.3268651,6.00507968 21.999302,6.9419524 C21.999302,6.9419524 23.0613548,7.73503748 23.5667181,6.97370038 C24.1465042,6.1001188 22.9887088,5.55630658 22.9887088,5.55630658 C20.913363,4.54385318 18.3464723,3.94514768 15.5679607,3.94514768 C15.0801666,3.94514768 14.5998739,3.96563025 14.1264906,4.00167957 L14.1264906,5.53848675 C14.6697562,5.47519561 15.2278274,5.44037524 15.7987301,5.44037524 M14.1264314,0 L14.1264314,4.00167957 C7.90374985,4.47359797 3.07042282,7.96034575 3.07042282,12.1942977 C3.07042282,16.4280447 7.90374985,19.9149973 14.1264314,20.3869157 L14.1264314,23.6846094 L3.7840512,23.6846094 C2.80787075,23.6846094 2.01606898,22.863668 2.01606898,21.8503953 L2.01606898,1.83441891 C2.01606898,0.82135103 2.80787075,0 3.7840512,0 L14.1264314,0 Z M14.1264314,5.53848675 L14.1264314,18.0254803 C9.62415685,17.5021507 6.20229397,14.9068043 6.20229397,11.7819835 C6.20229397,8.6567531 9.62415685,6.06161157 14.1264314,5.53848675 Z" id="Combined-Shape" fill="#657381" fill-rule="nonzero"></path>
    </g>
</svg>