<?xml version="1.0" encoding="UTF-8"?>
<svg width="30px" height="30px" viewBox="0 0 30 30" version="1.1" xmlns="http://www.w3.org/2000/svg" xmlns:xlink="http://www.w3.org/1999/xlink">
    <title>sport-type/icon-exchange</title>
    <defs>
        <linearGradient x1="50%" y1="100%" x2="50%" y2="0%" id="linearGradient-1">
            <stop stop-color="#FF5CC2" offset="0%"></stop>
            <stop stop-color="#FF87C8" offset="100%"></stop>
        </linearGradient>
        <path d="M17.9603374,8.93349808 L19.2489315,10.1804776 L14.798067,14.5803294 L16.0630863,15.8270741 L20.5274447,11.4405306 L21.7927021,12.7104472 L21.7740487,15.2446441 L6.86441083,29.9476361 C6.81400691,30.0000139 6.76018981,30.0000139 6.69248187,30.0000139 C6.47697535,29.9996947 5.78124252,29.7998366 5.53898621,29.724841 C2.85432268,28.8939388 0.728071079,26.4603363 0.442475332,23.6805637 L15.3722748,8.99393302 C15.4935617,8.98853145 15.613658,8.95275584 15.7325636,8.93905621 C16.441711,8.85724984 17.2415855,8.95283413 17.9603374,8.93349808 Z M21.1891648,7.05185767 L23.7018994,9.48585154 C23.7219816,9.59756225 22.5782492,10.6078122 22.4287837,10.7942837 L19.904619,8.3065873 L21.1891648,7.05185767 Z M10.4557575,3.35853109 C12.1175787,7.66201575 7.91325684,11.9847582 3.47358444,10.3281988 C3.04050762,10.1666214 1.63372234,9.36484075 1.45290324,8.97882428 C1.36606563,8.79360527 1.87026356,8.38801791 2.01845902,8.24726399 C3.66726249,6.68127874 4.67216581,6.62303573 6.6845125,5.87754096 C8.17861165,5.32399758 9.32305842,4.4443247 10.4557575,3.35853109 Z M27.4872734,0.844711421 L30.0000079,3.32113501 L24.9917635,8.21456493 L22.5221302,5.73814134 L27.4872734,0.844711421 Z M6.00018603,0.0206668719 C6.28181297,0.047674716 6.79863173,0.185140728 7.0824812,0.271565829 C7.98427477,0.546106434 8.81502661,1.12423086 9.44527403,1.80670734 C8.58689926,2.67565536 7.67835871,3.53607048 6.53295942,4.02996175 C5.64751735,4.41182917 4.67833334,4.58749759 3.78598554,4.95323859 C2.48405629,5.48689793 1.39056907,6.32171431 0.444801056,7.3393229 C-0.663370768,5.04044653 0.394873395,2.11647557 2.55874934,0.81587174 C3.17931286,0.442850358 4.14786187,0.0864251009 4.87129701,0.0206668719 C5.16673541,-0.00618440486 5.7058589,-0.00759350977 6.00018603,0.0206668719 Z" id="path-2"></path>
        <filter x="-11.7%" y="-11.7%" width="123.3%" height="123.3%" filterUnits="objectBoundingBox" id="filter-3">
            <feGaussianBlur stdDeviation="3" in="SourceAlpha" result="shadowBlurInner1"></feGaussianBlur>
            <feOffset dx="0" dy="1" in="shadowBlurInner1" result="shadowOffsetInner1"></feOffset>
            <feComposite in="shadowOffsetInner1" in2="SourceAlpha" operator="arithmetic" k2="-1" k3="1" result="shadowInnerInner1"></feComposite>
            <feColorMatrix values="0 0 0 0 1   0 0 0 0 1   0 0 0 0 1  0 0 0 0.5 0" type="matrix" in="shadowInnerInner1"></feColorMatrix>
        </filter>
    </defs>
    <g id="sport-type/icon-exchange" stroke="none" stroke-width="1" fill="none" fill-rule="evenodd">
        <g id="Combined-Shape">
            <use fill="url(#linearGradient-1)" fill-rule="evenodd" xlink:href="#path-2"></use>
            <use fill="black" fill-opacity="1" filter="url(#filter-3)" xlink:href="#path-2"></use>
        </g>
    </g>
</svg>