<?xml version="1.0" encoding="UTF-8"?>
<svg width="30px" height="30px" viewBox="0 0 30 30" version="1.1" xmlns="http://www.w3.org/2000/svg" xmlns:xlink="http://www.w3.org/1999/xlink">
    <title>sport-type/icon-sbov2</title>
    <defs>
        <linearGradient x1="50%" y1="0%" x2="50%" y2="100%" id="linearGradient-1">
            <stop stop-color="#4592FF" offset="0%"></stop>
            <stop stop-color="#3436DE" offset="100%"></stop>
        </linearGradient>
        <path d="M17.7829809,10.1631362 L16.0451799,12.2362748 L19.6743381,15.2849602 C20.28268,15.7956805 20.3619937,16.7034021 19.8516274,17.3122051 L10.6690926,28.2674093 C10.3960588,28.5933362 9.99279649,28.7815818 9.56803224,28.7815818 L6.74377596,28.7815818 C6.13320271,28.7815818 5.80073442,28.0675887 6.19304295,27.5995131 L8.21341158,25.1890757 L8.21341158,25.1890757 L15.3406879,16.6859381 L10.6104694,12.7122702 L14.6382244,7.90682879 L14.8276847,7.68060915 L17.3073018,4.72228974 L19.5585117,2.03669294 C19.8315455,1.71076607 20.2348078,1.52252046 20.659572,1.52252046 L23.4838283,1.52252046 C24.0944016,1.52252046 24.4268699,2.23651353 24.0343585,2.70458919 L20.262598,7.20481684 L17.7829809,10.1631362 Z M25.9109077,7.88286657 C25.3185908,8.23905083 24.6491916,8.45917838 23.9406426,8.52111464 C22.9880672,8.60538857 22.0563851,8.39480529 21.2443836,7.92896339 L24.9666491,3.48782903 C25.4557162,2.90440978 25.5597774,2.11325022 25.2382629,1.42301631 C24.9167484,0.732985462 24.2445093,0.304102253 23.4838283,0.304102253 L23.4838283,0.304102253 L20.659572,0.304102253 C19.8729265,0.304305323 19.131719,0.650133024 18.6262211,1.25345311 L16.3750112,3.93925297 L14.0538186,1.98917463 C12.3166261,0.529712691 10.1155197,-0.164582617 7.8566015,0.0330042022 C7.27178997,0.0841777669 6.70300346,0.196881451 6.15450178,0.363601676 C5.54798549,0.547988964 5.1335665,1.10927362 5.1335665,1.74386643 L5.1335665,3.90127894 C5.1335665,4.46114211 5.74312551,4.80656367 6.22265879,4.51820469 C6.81477285,4.16222351 7.4841721,3.94229902 8.19272106,3.88036276 C9.42624131,3.77232968 10.6260887,4.15146081 11.5739986,4.94749404 L11.8725913,5.19828512 L6.10074699,12.0843787 C5.58977223,12.6939939 5.6690859,13.603137 6.27823921,14.1146696 L9.90577458,17.1619335 L4.16983444,24.0053824 C3.77671452,24.4742704 4.10979135,25.1892788 4.721176,25.1890757 L6.62470404,25.1890757 L5.26075236,26.8162732 C4.77188806,27.3996925 4.66782691,28.190852 4.98934139,28.8808829 C5.31065303,29.5711168 5.983095,30 6.74377596,30 L9.56803224,30 C10.3546778,30 11.0958853,29.6539692 11.601586,29.0506491 L20.783918,18.0954449 C21.7247282,16.9728756 21.578069,15.2934892 20.4567238,14.3514488 L17.7598562,12.0862063 L18.7418446,10.9146972 C20.1536685,11.8859796 21.8070846,12.4015736 23.5221666,12.4015736 C23.7724814,12.4013705 24.0244189,12.3906078 24.2767622,12.3682701 C24.8615737,12.3170966 25.430563,12.2043929 25.9792676,12.0376727 C26.5857839,11.8532854 27,11.2920007 27,10.6574079 L27,8.49979232 C27,7.93992916 26.390441,7.59450759 25.9109077,7.88286657 L25.9109077,7.88286657 Z" id="path-2"></path>
        <filter x="-17.4%" y="-13.3%" width="134.8%" height="126.7%" filterUnits="objectBoundingBox" id="filter-3">
            <feGaussianBlur stdDeviation="3.5" in="SourceAlpha" result="shadowBlurInner1"></feGaussianBlur>
            <feOffset dx="0" dy="1" in="shadowBlurInner1" result="shadowOffsetInner1"></feOffset>
            <feComposite in="shadowOffsetInner1" in2="SourceAlpha" operator="arithmetic" k2="-1" k3="1" result="shadowInnerInner1"></feComposite>
            <feColorMatrix values="0 0 0 0 1   0 0 0 0 1   0 0 0 0 1  0 0 0 0.5 0" type="matrix" in="shadowInnerInner1"></feColorMatrix>
        </filter>
    </defs>
    <g id="sport-type/icon-sbov2" stroke="none" stroke-width="1" fill="none" fill-rule="evenodd">
        <g id="sbo">
            <use fill="url(#linearGradient-1)" fill-rule="evenodd" xlink:href="#path-2"></use>
            <use fill="black" fill-opacity="1" filter="url(#filter-3)" xlink:href="#path-2"></use>
        </g>
    </g>
</svg>