<?xml version="1.0" encoding="UTF-8"?>
<svg width="20px" height="20px" viewBox="0 0 20 20" version="1.1" xmlns="http://www.w3.org/2000/svg" xmlns:xlink="http://www.w3.org/1999/xlink">
    <title>utility-type/System/Help/icon-livechat</title>
    <g id="utility-type/System/Help/icon-livechat" stroke="none" stroke-width="1" fill="none" fill-rule="evenodd">
        <path d="M9.99859911,1 C14.0458318,1 17.4510278,3.77115868 18.4686757,7.5395589 L18.5701243,7.53539913 C19.3565559,7.53539913 20,8.18084672 20,8.96875797 L20,10.8673043 C20,11.6097799 19.4300288,12.2252009 18.7073202,12.2950343 L18.5701243,12.3016322 L18.4531799,12.2969329 C17.6282253,15.2736882 15.3109981,17.6192672 12.3687804,18.4522739 L12.3744149,18.565672 C12.3744149,19.3545524 11.7309708,20 10.9455053,20 L9.05285226,20 C8.31268131,20 7.69917063,19.428254 7.62955404,18.7032951 L7.62297656,18.565672 C7.62297656,17.7767916 8.26642062,17.131344 9.05285226,17.131344 L10.058,17.131 L10.2389035,17.1282855 C14.0682489,16.9997372 17.1363841,13.8102989 17.1363841,9.88992604 C17.1363841,5.88787871 13.9390783,2.64753889 9.99859911,2.64753889 C6.05811996,2.64753889 2.86081416,5.88787871 2.86081416,9.88992604 L2.859,9.906 L2.85975141,10.8710839 C2.85975141,11.6135596 2.2897802,12.2289806 1.5670716,12.2988139 L1.42987571,12.3054119 C0.643444068,12.3054119 0,11.6599643 0,10.8710839 L0,8.97253762 C0,8.23097409 0.569971216,7.61560675 1.29267982,7.54577655 L1.42987571,7.53917878 L1.52743876,7.54357569 C2.543751,3.77312806 5.94992853,1 9.99859911,1 Z M13.0286796,9.64444274 C13.4822227,9.64444274 13.849892,10.0132569 13.849892,10.4682122 C13.849892,12.6114103 12.118044,14.3486509 9.98149857,14.3486509 C7.84417664,14.3486509 6.11213897,12.6116005 6.11213897,10.4682122 C6.11213897,10.0132569 6.47980828,9.64444274 6.93335137,9.64444274 C7.38689445,9.64444274 7.75456377,10.0132569 7.75456377,10.4682122 C7.75456377,11.7016091 8.7511823,12.701112 9.98149857,12.701112 C11.2109578,12.701112 12.2074672,11.7014997 12.2074672,10.4682122 C12.2074672,10.0132569 12.5751366,9.64444274 13.0286796,9.64444274 Z M7.97242659,6.31883703 C8.56563178,6.31883703 9.04676563,6.80146901 9.04676563,7.3965213 C9.04676563,7.99254272 8.56563178,8.4751747 7.97242659,8.4751747 C7.37922139,8.4751747 6.89808754,7.99254272 6.89808754,7.3965213 C6.89808754,6.80146901 7.37922139,6.31883703 7.97242659,6.31883703 Z M11.9896044,6.31883703 C12.5828096,6.31883703 13.0639435,6.80146901 13.0639435,7.3965213 C13.0639435,7.99254272 12.5828096,8.4751747 11.9896044,8.4751747 C11.3963992,8.4751747 10.9152654,7.99254272 10.9152654,7.3965213 C10.9152654,6.80146901 11.3963992,6.31883703 11.9896044,6.31883703 Z" id="Combined-Shape" fill="#E2E6E9" fill-rule="nonzero"></path>
    </g>
</svg>