<?xml version="1.0" encoding="UTF-8"?>
<svg width="30px" height="30px" viewBox="0 0 30 30" version="1.1" xmlns="http://www.w3.org/2000/svg" xmlns:xlink="http://www.w3.org/1999/xlink">
    <title>sport-type/icon-cmd368</title>
    <defs>
        <linearGradient x1="50%" y1="0.899300152%" x2="50%" y2="99.0191245%" id="linearGradient-1">
            <stop stop-color="#6BA4FF" offset="0%"></stop>
            <stop stop-color="#0069FF" offset="100%"></stop>
        </linearGradient>
        <path d="M11.7322427,3.73406589 C9.78420221,4.86687648 6.00964559,7.91745499 6.80341673,14.2747644 L6.80441672,14.2737644 C6.80441672,14.2737644 6.93081611,11.2689863 9.58867816,9.40029386 C9.57227824,9.20334202 9.56392828,9.00399015 9.56392828,8.80256327 C9.56392828,6.78766943 10.4016242,4.97787751 11.7322427,3.73406589 Z M16.3720201,2.01841735 L16.3797451,2.01521732 C11.9278168,1.77980012 9.415779,4.32169638 7.99141094,6.46429141 C6.5838928,8.58206121 5.52902293,12.7669003 7.16001499,15.6922277 C7.16001499,15.6922277 6.17486979,12.4246971 9.63177795,9.78869749 C10.0617759,12.8849014 12.486239,15.303549 15.4963744,15.5704015 C13.923782,16.0682812 10.5401985,16.9397143 7.73508719,16.2940583 C4.26750408,15.4964258 5.66504727,13.7471845 5.66504727,13.7471845 C5.66504727,13.7471845 4.33505375,14.7544189 5.74749687,16.1122816 C7.158965,17.4701443 12.6101634,17.6866963 17.8050631,15.3493995 L17.8055881,15.3435994 C20.5359998,14.5424669 22.5382901,11.9176674 22.5382901,8.80256327 C22.5382901,5.16347925 19.8057534,2.19352898 16.3720201,2.01841735 Z M17.4790647,2.89561805 L17.0243919,3.94701788 L17.5359395,4.92445201 L16.7869931,4.00166839 L14.9434521,3.83081679 L13.9630569,4.56884869 L14.7944528,3.68281541 L14.5092542,2.9762313 C12.6338633,3.49083861 11.0963458,4.86350145 10.4247991,6.70756868 L11.9593666,6.16213859 L13.1970106,7.92230504 L14.9481771,8.19945763 L13.0748362,8.1537572 L11.7855425,9.58809561 L12.3983895,11.1972857 L11.6127183,9.68942156 L10.0731758,9.19986698 C10.227675,11.6219396 11.7865175,13.5525827 13.8757073,14.3900905 L14.1785308,13.7522095 L13.6779082,12.9913274 L14.33548,13.6558586 L16.4124449,13.6558586 L17.2070661,12.7440001 L16.5624192,13.7104842 L17.1532913,14.7720691 C19.9867025,14.33924 22.0416425,11.9400426 22.0416425,8.80256327 C22.0416425,8.3030586 21.9883678,7.8220791 21.8872933,7.36462483 L20.4720752,8.12780696 L19.3208558,10.1472258 L19.7489787,10.8157321 L19.1649065,10.2614519 L16.9717172,10.1929263 L15.8483227,11.553764 L16.8902676,10.0002245 L16.3052204,7.91722999 L18.4984098,6.40044081 L20.3350008,7.87152957 L21.8784433,7.32519946 C21.3627958,5.05977828 19.672029,3.37863756 17.4790647,2.89561805 Z M27.0378682,5.63493366 L28.6578603,6.14053838 L27.5423657,4.92570203 L28.3201119,3.8320668 L26.8501191,4.17179498 L25.8061242,3.03443435 L25.9481235,4.38037193 L24.2645317,4.76877556 L26.048373,5.32603077 L26.2043722,6.8050696 L27.0378682,5.63493366 Z M25.2101271,6.6876935 L24.5406803,6.47909155 L24.196007,6.96284607 L24.1314323,6.35096535 L23.3944109,6.12151321 L24.0897325,5.9605867 L24.0311078,5.4043315 L24.4632057,5.87416089 L25.0701278,5.73410958 L24.7482793,6.18606381 L25.2101271,6.6876935 Z M7.26928946,23.0317963 C7.26928946,23.0317963 4.04108018,23.0208712 3.33783361,23.0317963 L3.29063384,23.0325963 C2.68618678,23.0433214 1.24171632,23.0689216 1.56182976,21.4683067 C1.87670322,19.895892 2.62563708,17.971824 4.48507802,17.971824 L9.6839777,17.971824 L9.28665463,18.7764065 L6.08627022,18.7764065 C5.50319806,18.7764065 5.07807513,18.7764065 4.63407729,19.6177644 C4.19007946,20.4590972 3.90300585,21.078928 3.88513094,21.4216312 C3.86625603,21.7643344 3.85733108,22.1616632 5.0224504,22.1616632 L7.66758752,22.1616632 L7.27026445,23.0307963 L7.26928946,23.0317963 Z M11.0072213,17.971824 L8.83590683,23.1311222 L10.4152241,23.1311222 L12.0670661,19.1836853 L12.3511647,23.1311222 L14.8175027,23.1311222 L17.9880873,19.5541888 L16.5567442,23.1311222 L19.5912544,23.1311222 L21.540095,17.971824 L17.7288385,17.971824 L14.8423276,21.1703289 L14.8423276,17.971824 L11.0072213,17.971824 Z M28.3591117,17.971824 L22.7728389,17.971824 L20.9471728,23.1301472 L26.448121,23.1301472 C28.2608622,23.1301472 28.9023591,22.4020404 29.0871082,21.9709364 C29.1008581,21.9391361 29.1141081,21.9080358 29.127608,21.8770355 C29.2953572,21.4868568 29.4543564,21.1175034 29.8888543,19.68929 C30.357602,18.1476506 29.2471074,17.971824 28.3591117,17.971824 Z M27.2626171,19.68929 C27.2293672,19.7822659 27.1991174,19.8695667 27.1696175,19.9555925 C27.0336182,20.3491962 26.9068688,20.7158746 26.5473706,21.4772568 C26.1736224,22.2697642 25.6508749,22.2682642 25.216127,22.2670391 C25.1991271,22.2669891 25.1823772,22.2669391 25.1656273,22.2669391 L23.7105094,22.2669391 L24.9441784,18.9125078 L26.7946194,18.9125078 C27.4483662,18.9125078 27.4483662,19.1717602 27.2636171,19.68929 L27.2626171,19.68929 Z M2.38526575,27.5464885 L0.174200516,27.5464885 L0.174200516,27.5434885 C-0.389988236,28.7274995 0.525824803,28.77425 1.35820325,28.77425 L6.27896928,28.77425 C7.75493709,28.77425 8.00791086,28.2229948 8.42205884,27.3204864 L8.42545883,27.3129863 C8.8416568,26.4059778 8.13841023,26.3504773 8.13841023,26.3504773 C8.77710711,26.2669765 8.93403135,26.0544745 9.37802919,24.9538393 C9.80850209,23.8867793 8.50048346,23.8888043 7.77946197,23.8899293 L7.7132873,23.8900043 L3.43020816,23.8900043 C1.31251347,23.8900043 1.23801633,25.1207158 1.23801633,25.1207158 L3.50470779,25.1207158 C3.67058199,24.713462 3.80965631,24.5565105 4.19802942,24.5565105 L6.54716798,24.5565105 C7.06566545,24.5565105 7.11134023,24.6667616 7.01004072,24.8614634 C6.98106586,24.9165639 6.95146601,24.9775645 6.92014116,25.0421651 L6.92006616,25.0422901 L6.92006616,25.0423401 C6.84069155,25.2058916 6.75019199,25.3924434 6.63059257,25.56472 C6.46471838,25.8062222 6.29784419,25.9074732 5.97402077,25.9074732 L3.98545545,25.9074732 L3.7083318,26.7219808 L5.6601473,26.7219808 C6.0296455,26.7219808 6.11309509,26.8242317 6.05747036,26.9812332 C6.02094554,27.0849842 5.95229587,27.2319856 5.87289626,27.4017371 L5.87289626,27.4019871 C5.83137146,27.490738 5.78692168,27.5859889 5.74259689,27.6844898 C5.61347252,27.9714925 5.40984852,28.027243 5.14164982,28.027243 L2.38526575,28.027243 C2.12601701,28.027243 2.38526575,27.5464885 2.38526575,27.5464885 Z M18.869158,24.8016878 C19.0290822,24.0249056 17.7467384,23.8918043 17.0931416,23.8918043 L13.0166865,23.8918043 C11.3390196,23.8918043 10.7221726,24.2156324 10.445049,24.8632634 C10.3839743,25.0057897 10.2883998,25.2247918 10.1763753,25.4815192 L10.1759753,25.4824192 L10.1759253,25.4825442 L10.1758753,25.4826192 L10.1758253,25.4827442 L10.1758003,25.4827942 C9.87790175,26.1654756 9.46385377,27.1142345 9.2719797,27.601739 C8.83690682,28.7054993 9.71100257,28.777 10.5165736,28.777 L15.7243983,28.777 C17.1209665,28.777 17.5003896,28.2127447 17.9722123,27.0197336 C18.4308601,25.8602227 17.1324414,25.8624728 16.5586692,25.8634728 L16.5110694,25.8634728 L12.6263134,25.8634728 C12.6263134,25.8634728 12.903437,25.0867655 12.9958116,24.8831386 C13.0882111,24.6795117 13.2083855,24.4669347 13.6345085,24.4669347 L16.0392717,24.4669347 C16.5110694,24.4669347 16.4743196,24.8026878 16.4743196,24.8026878 L18.870158,24.8026878 L18.869158,24.8016878 Z M15.5952739,26.8429819 C15.5952739,26.8429819 15.37375,28.0577433 14.6327786,28.0577433 L12.2210653,28.0577433 C11.670418,28.0577433 12.0243663,27.3484866 12.2705151,26.855232 L12.2766901,26.8429819 L15.5942739,26.8429819 L15.5952739,26.8429819 Z M22.2172917,23.8918043 L27.0556181,23.8918043 L27.0556181,23.8938043 C28.0081134,23.8938043 28.3231119,24.3556837 28.0081134,25.1145908 C27.693365,25.8724728 27.3606166,26.2519764 26.6851199,26.3354772 C26.6851199,26.3354772 27.4161163,26.427728 27.0456181,27.2602358 L27.0231182,27.3109863 C26.66437,28.1202439 26.3733714,28.777 25.1406274,28.777 L20.2009265,28.777 C19.2205312,28.777 18.6980588,28.5792482 18.8411081,27.9624924 L18.856008,27.8982418 C19.0235822,27.174735 19.1516816,26.6219799 20.2565512,26.3344772 C20.2565512,26.3344772 19.6367292,26.2599765 19.8125284,25.5754701 L19.8168033,25.5589699 C19.9923275,24.8750635 20.2447263,23.8918043 22.2172917,23.8918043 Z M24.5437803,27.5399884 C24.5516053,27.5104882 24.5593302,27.4817379 24.5674302,27.4537376 L24.5674302,27.4547376 C24.5712802,27.4412375 24.5752052,27.4277374 24.5791301,27.4142373 C24.6561048,27.1474848 24.7365794,26.8687322 24.4313559,26.8687322 L22.155717,26.8687322 C21.5961447,26.8687322 21.4914452,27.2884861 21.4027956,27.6439894 C21.3948207,27.6759897 21.3869957,27.70749 21.3789707,27.7379903 C21.3064461,28.0159929 21.3481709,28.1014937 21.6630444,28.1014937 L23.9337083,28.1014937 C24.3937311,28.1014937 24.4738057,27.8017409 24.5437803,27.5399884 Z M25.4506259,25.2579171 C25.4553759,25.2405169 25.4601259,25.2232668 25.4646258,25.2062916 C25.4678758,25.1947915 25.4711258,25.1834164 25.4743758,25.1721913 L25.4743758,25.1731913 C25.4761258,25.1665412 25.4781258,25.1598912 25.4801258,25.1532161 C25.4821258,25.1463161 25.4841257,25.139391 25.4861257,25.1324659 C25.5628754,24.8658634 25.643375,24.5871358 25.3381265,24.5871358 L23.0625875,24.5871358 C22.5030153,24.5871358 22.3983158,25.0068898 22.3096662,25.3623181 L22.3095412,25.3628931 C22.3058662,25.3776182 22.3022162,25.3922184 22.2985663,25.4066935 C22.2943413,25.4234186 22.2901163,25.4399688 22.2858413,25.456294 C22.2133167,25.7344716 22.2550415,25.8197224 22.5699149,25.8197224 L24.8405789,25.8197224 C25.3006266,25.8197224 25.3806262,25.5202196 25.4506259,25.2582671 L25.4506259,25.2579171 Z M3.28705885,16.7024621 L4.72535185,17.331218 L3.82243125,16.1005065 L4.64785223,15.1747228 L3.26223398,15.3386244 L2.41792559,14.1873636 L2.41295811,15.4389503 L0.825678343,15.6257021 L2.40898563,16.3180335 L2.40302566,17.6937964 L3.28705885,16.7024621 Z" id="path-2"></path>
        <filter x="-11.7%" y="-13.1%" width="123.3%" height="126.1%" filterUnits="objectBoundingBox" id="filter-3">
            <feGaussianBlur stdDeviation="3" in="SourceAlpha" result="shadowBlurInner1"></feGaussianBlur>
            <feOffset dx="0" dy="1" in="shadowBlurInner1" result="shadowOffsetInner1"></feOffset>
            <feComposite in="shadowOffsetInner1" in2="SourceAlpha" operator="arithmetic" k2="-1" k3="1" result="shadowInnerInner1"></feComposite>
            <feColorMatrix values="0 0 0 0 1   0 0 0 0 1   0 0 0 0 1  0 0 0 0.5 0" type="matrix" in="shadowInnerInner1"></feColorMatrix>
        </filter>
    </defs>
    <g id="sport-type/icon-cmd368" stroke="none" stroke-width="1" fill="none" fill-rule="evenodd">
        <g id="Shape">
            <use fill="url(#linearGradient-1)" fill-rule="evenodd" xlink:href="#path-2"></use>
            <use fill="black" fill-opacity="1" filter="url(#filter-3)" xlink:href="#path-2"></use>
        </g>
    </g>
</svg>