<?xml version="1.0" encoding="UTF-8"?>
<svg width="30px" height="30px" viewBox="0 0 30 30" version="1.1" xmlns="http://www.w3.org/2000/svg" xmlns:xlink="http://www.w3.org/1999/xlink">
    <title>sport-type/icon-sbtech</title>
    <defs>
        <linearGradient x1="50%" y1="2.46519033e-30%" x2="50%" y2="100%" id="linearGradient-1">
            <stop stop-color="#FF5454" offset="0%"></stop>
            <stop stop-color="#FF0000" offset="100%"></stop>
        </linearGradient>
        <path d="M13.0001272,0 C20.1798828,0 26,5.82011721 26,12.9998728 L25.9968225,13.2901882 C25.8424512,20.3358729 20.0828591,26 13.0001272,26 L12.7098118,25.9968223 C5.66412713,25.8424445 0,20.0826047 0,12.9998728 L0.00317765361,12.7095575 C0.157555584,5.66387959 5.91739531,0 13.0001272,0 Z M12.9068367,21.0875293 C12.5281752,21.0875293 12.2210801,21.3943586 12.2210801,21.7730218 C12.2210801,22.151952 12.5281752,22.4587813 12.9068367,22.4587813 C13.2854983,22.4587813 13.5925934,22.151952 13.5925934,21.7730218 C13.5925934,21.3943586 13.2854983,21.0875293 12.9068367,21.0875293 Z M10.0220125,21.3032177 C9.92400909,21.669063 10.141112,22.0447887 10.5069556,22.1427926 C10.8727993,22.2407963 11.2487904,22.0239596 11.3467938,21.6581143 C11.4447972,21.292269 11.2276944,20.9162763 10.8618507,20.8182725 C10.496007,20.7202687 10.1200158,20.9373725 10.0220125,21.3032177 Z M14.9517694,20.8182725 C14.5859257,20.9162763 14.3688228,21.2922691 14.4670933,21.6581143 C14.5650967,22.0239596 14.9408208,22.2407963 15.3066645,22.1427926 C15.6725082,22.0447887 15.8896109,21.669063 15.7916076,21.3029507 C15.6936042,20.9373725 15.3176131,20.7202687 14.9517694,20.8182725 Z M8.01972601,20.2799726 C7.83039524,20.6078981 7.94255169,21.0271514 8.2704758,21.216483 C8.59866695,21.4058146 9.01791846,21.2936577 9.20724924,20.9657322 C9.39658005,20.6378066 9.28415652,20.2182863 8.95623242,20.0289547 C8.6283083,19.8396231 8.20905678,19.9520471 8.01972601,20.2799726 Z M16.8573343,20.0290348 C16.5294101,20.2183664 16.4169867,20.6376197 16.6063175,20.9655453 C16.7956482,21.2934707 17.2151667,21.4058947 17.5430909,21.2165632 C17.8710149,21.0272316 17.9834385,20.6077112 17.7941077,20.2797857 C17.6047769,19.9518601 17.1852583,19.8397032 16.8573343,20.0290348 Z M6.35017036,18.7733578 C6.08233006,19.0411992 6.08233006,19.4751397 6.35017036,19.7429811 C6.61801065,20.0108226 7.05221636,20.0108226 7.31978962,19.7429811 C7.58762991,19.4751397 7.58762991,19.0411992 7.31978962,18.7733578 C7.05221636,18.5055162 6.61801065,18.5055162 6.35017036,18.7733578 Z M18.4937503,18.7733578 C18.22591,19.0409321 18.22591,19.4751397 18.4937503,19.7429811 C18.7615906,20.0108226 19.1955293,20.0108226 19.4633696,19.7429811 C19.7312099,19.4751397 19.7312099,19.0409321 19.4633696,18.7733578 C19.1955293,18.5055162 18.7615906,18.5055162 18.4937503,18.7733578 Z M12.9068367,18.1928654 C12.5281752,18.1928654 12.2210801,18.4999618 12.2210801,18.878625 C12.2210801,19.2572882 12.5281752,19.5641176 12.9068367,19.5641176 C13.2854983,19.5641176 13.5925934,19.2572882 13.5925934,18.878625 C13.5925934,18.4999618 13.2854983,18.1928654 12.9068367,18.1928654 Z M10.0742987,18.1788725 C9.92956352,18.5286953 10.0956619,18.9297899 10.4454832,19.0745258 C10.7953046,19.2195287 11.1963974,19.0534297 11.3413996,18.7036068 C11.4861349,18.353784 11.3200366,17.9526894 10.9702152,17.8076865 C10.6203939,17.6629506 10.219301,17.8290497 10.0742987,18.1788725 Z M14.8434316,17.8075797 C14.4936102,17.9525825 14.3275119,18.3536772 14.4722471,18.7034999 C14.6172494,19.0533228 15.0183422,19.2194219 15.3681636,19.0746861 C15.7179848,18.9296831 15.8840832,18.5285886 15.739348,18.1787657 C15.5943457,17.8289429 15.1932529,17.6628438 14.8434316,17.8075797 Z M19.7494754,17.136988 C19.5598775,17.4649135 19.6723011,17.8841669 20.0002251,18.0734984 C20.3281493,18.26283 20.7476679,18.1506731 20.9369986,17.8224805 C21.1263294,17.494555 21.0139059,17.0753017 20.6859818,16.88597 C20.3580577,16.6966385 19.9388062,16.8090624 19.7494754,17.136988 Z M5.1277184,16.8859434 C4.79952725,17.0752749 4.6873708,17.4947953 4.87670157,17.8227209 C5.06603234,18.1506463 5.48528386,18.2630703 5.81320798,18.0734717 C6.14113208,17.8841401 6.25355558,17.4648868 6.0642248,17.1369613 C5.87489403,16.8090358 5.45564251,16.6966118 5.1277184,16.8859434 Z M8.35878566,16.7107115 C8.09094536,16.978553 8.09094536,17.4124935 8.35878566,17.6803349 C8.62662596,17.9481764 9.06083166,17.9481764 9.32840489,17.6803349 C9.59624519,17.4124935 9.59624519,16.978553 9.32840489,16.7107115 C9.06083166,16.44287 8.62662596,16.44287 8.35878566,16.7107115 Z M16.4852419,16.7108183 C16.2174016,16.9786597 16.2174016,17.4126003 16.4852419,17.6804417 C16.7528151,17.9480162 17.1870208,17.9480162 17.4548611,17.6804417 C17.7227014,17.4126003 17.7227014,16.9786597 17.4548611,16.7108183 C17.1870208,16.4429768 16.7528151,16.4429768 16.4852419,16.7108183 Z M12.9068367,15.3642941 C12.5281752,15.3642941 12.2210801,15.6711235 12.2210801,16.0497866 C12.2210801,16.4284499 12.5281752,16.7355462 12.9068367,16.7355462 C13.2854983,16.7355462 13.5925934,16.4284499 13.5925934,16.0497866 C13.5925934,15.6711235 13.2854983,15.3642941 12.9068367,15.3642941 Z M4.43507217,14.7464162 C4.06949554,14.84442 3.85239268,15.2204128 3.95039606,15.5862581 C4.04839944,15.9521033 4.42439061,16.1692071 4.78996724,16.0712033 C5.15581092,15.9731995 5.37291377,15.5972067 5.27491039,15.2313614 C5.17690701,14.8655162 4.80091585,14.6484124 4.43507217,14.7464162 Z M20.5386563,15.2311745 C20.4406529,15.5972868 20.6577558,15.9730125 21.0235994,16.0710164 C21.3894431,16.1690202 21.7651673,15.9521835 21.8631706,15.5863382 C21.961441,15.2204929 21.7443382,14.8445001 21.3784945,14.7464963 C21.0126508,14.6484925 20.6366596,14.8655963 20.5386563,15.2311745 Z M17.5822121,15.0690544 C17.4372099,15.4188771 17.6033082,15.8199718 17.9531295,15.9647076 C18.3029508,16.1097105 18.7043108,15.9436114 18.849046,15.5937886 C18.9940483,15.2436987 18.8279499,14.8426041 18.4781286,14.6978682 C18.1280402,14.5531324 17.7269474,14.7192315 17.5822121,15.0690544 Z M7.33551823,14.6977881 C6.9856969,14.842791 6.81959853,15.2438856 6.96460081,15.5937085 C7.10933604,15.9435313 7.51042889,16.1096304 7.86025021,15.9648945 C8.21033857,15.8198917 8.37643695,15.4187971 8.23143467,15.0689742 C8.0864324,14.7191514 7.68533955,14.5530523 7.33551823,14.6977881 Z M14.4998589,14.7044909 C14.2320186,14.9723323 14.2320186,15.4062729 14.4998589,15.6741143 C14.7676992,15.9419558 15.2016379,15.9419558 15.4694782,15.6741143 C15.7373185,15.4062729 15.7373185,14.9723323 15.4694782,14.7044909 C15.2016379,14.4366494 14.7676992,14.4366494 14.4998589,14.7044909 Z M10.3441953,14.7044909 C10.076355,14.9723323 10.076355,15.4062729 10.3441953,15.6741143 C10.6120356,15.9419558 11.0459742,15.9419558 11.3138145,15.6741143 C11.5816548,15.4062729 11.5816548,14.9723323 11.3138145,14.7044909 C11.0459742,14.4366494 10.6120356,14.4366494 10.3441953,14.7044909 Z M21.4935617,12.500794 C21.1149001,12.500794 20.807805,12.8076233 20.807805,13.1862865 C20.807805,13.5649496 21.1149001,13.872046 21.4935617,13.872046 C21.8722232,13.872046 22.1793183,13.5649496 22.1793183,13.1862865 C22.1793183,12.8076233 21.8722232,12.500794 21.4935617,12.500794 Z M4.3200584,12.5006604 C3.94139685,12.5006604 3.63430178,12.8077568 3.63430178,13.18642 C3.63430178,13.5650832 3.94139685,13.8719125 4.3200584,13.8719125 C4.69871995,13.8719125 5.00581502,13.5650832 5.00581502,13.18642 C5.00581502,12.8077568 4.69871995,12.5006604 4.3200584,12.5006604 Z M12.9068367,12.4466648 C12.5281752,12.4466648 12.2210801,12.7534942 12.2210801,13.1324244 C12.2210801,13.5110877 12.5281752,13.817917 12.9068367,13.817917 C13.2854983,13.817917 13.5925934,13.5110877 13.5925934,13.1324244 C13.5925934,12.7534942 13.2854983,12.4466648 12.9068367,12.4466648 Z M7.16060756,12.4466648 C6.78194601,12.4466648 6.47485095,12.7534942 6.47485095,13.1324244 C6.47485095,13.5110877 6.78194601,13.817917 7.16060756,13.817917 C7.53926912,13.817917 7.84636418,13.5110877 7.84636418,13.1324244 C7.84636418,12.7534942 7.53926912,12.4466648 7.16060756,12.4466648 Z M18.6530125,12.4466648 C18.274351,12.4466648 17.9672559,12.7534942 17.9672559,13.1324244 C17.9672559,13.5110877 18.274351,13.817917 18.6530125,13.817917 C19.0316741,13.817917 19.3387691,13.5110877 19.3387691,13.1324244 C19.3387691,12.7534942 19.0316741,12.4466648 18.6530125,12.4466648 Z M9.96836434,12.425809 C9.58970276,12.425809 9.28260769,12.7326384 9.28260769,13.1113015 C9.28260769,13.4899647 9.58970276,13.7970611 9.96836434,13.7970611 C10.3470258,13.7970611 10.6541209,13.4899647 10.6541209,13.1113015 C10.6541209,12.7326384 10.3470258,12.425809 9.96836434,12.425809 Z M15.8453359,12.425809 C15.4666743,12.425809 15.1595792,12.7326384 15.1595792,13.1113015 C15.1595792,13.4902318 15.4666743,13.7970611 15.8453359,13.7970611 C16.2239974,13.7970611 16.5310925,13.4902318 16.5310925,13.1113015 C16.5310925,12.7326384 16.2239974,12.425809 15.8453359,12.425809 Z M10.3441685,10.5488359 C10.0763282,10.8164103 10.0763282,11.250618 10.3441685,11.5184594 C10.6120088,11.7863008 11.0459475,11.7863008 11.3137878,11.5184594 C11.5816281,11.250618 11.5816281,10.8164103 11.3137878,10.5488359 C11.0459475,10.2809945 10.6120088,10.2809945 10.3441685,10.5488359 Z M14.4998589,10.5488359 C14.2320186,10.8164103 14.2320186,11.250618 14.4998589,11.5184594 C14.7676992,11.7863008 15.2016379,11.7863008 15.4694782,11.5184594 C15.7373185,11.250618 15.7373185,10.8164103 15.4694782,10.5488359 C15.2016379,10.2809945 14.7676992,10.2809945 14.4998589,10.5488359 Z M3.95028925,10.7865552 C3.85228587,11.1524004 4.06938872,11.5281263 4.4352324,11.62613 C4.80107608,11.7244009 5.1768002,11.5072971 5.27480358,11.1414518 C5.373074,10.7756066 5.15597114,10.3996138 4.79012747,10.30161 C4.42428379,10.2036061 4.04829262,10.4207099 3.95028925,10.7865552 Z M21.0235994,10.3017435 C20.6577558,10.3997473 20.4406529,10.7754731 20.5386563,11.1415854 C20.6366596,11.5071636 21.0126508,11.7242674 21.3784945,11.6262635 C21.7443382,11.5282598 21.961441,11.1522669 21.8631706,10.7864217 C21.7651673,10.4205764 21.3894431,10.2037396 21.0235994,10.3017435 Z M17.9532897,10.2999543 C17.6034684,10.4446902 17.43737,10.8457848 17.5821053,11.1956076 C17.7271075,11.5454305 18.1282004,11.7117966 18.4780217,11.5667936 C18.8278431,11.4220578 18.9939414,11.0209632 18.8489392,10.6711404 C18.7042039,10.3210505 18.3031111,10.1549514 17.9532897,10.2999543 Z M6.96449398,10.6711137 C6.81975875,11.0209365 6.98585713,11.4220311 7.33567844,11.566767 C7.68549977,11.7117698 8.08659262,11.5456708 8.23159489,11.1955809 C8.37633013,10.845758 8.21023176,10.4446634 7.86041043,10.2999276 C7.51058911,10.1549247 7.10949626,10.3212908 6.96449398,10.6711137 Z M12.9068367,9.48732386 C12.5281752,9.48732386 12.2210801,9.7941532 12.2210801,10.1728165 C12.2210801,10.5514796 12.5281752,10.858576 12.9068367,10.858576 C13.2854983,10.858576 13.5925934,10.5514796 13.5925934,10.1728165 C13.5925934,9.7941532 13.2854983,9.48732386 12.9068367,9.48732386 Z M16.4852419,8.58438041 C16.2174016,8.85195482 16.2174016,9.28616241 16.4852419,9.55400383 C16.7528151,9.82184534 17.1870208,9.82184534 17.4548611,9.55400383 C17.7227014,9.28616241 17.7227014,8.85195482 17.4548611,8.58438041 C17.1870208,8.31653894 16.7528151,8.31653894 16.4852419,8.58438041 Z M8.35886577,8.58438041 C8.09102547,8.85195482 8.09102547,9.28616241 8.35886577,9.55400383 C8.62670607,9.82184534 9.06064473,9.82184534 9.32848503,9.55400383 C9.59632533,9.28616241 9.59632533,8.85195482 9.32848503,8.58438041 C9.06064473,8.31653894 8.62670607,8.31653894 8.35886577,8.58438041 Z M20.0002251,8.29918133 C19.6723011,8.48851293 19.5601446,8.90776624 19.7494754,9.23569177 C19.9388062,9.56361733 20.3580577,9.67604133 20.6859818,9.4867097 C21.0139059,9.29737807 21.1263294,8.87812477 20.9369986,8.55019924 C20.7476679,8.22200667 20.3284164,8.10984973 20.0002251,8.29918133 Z M4.87651464,8.55022594 C4.68718387,8.87815147 4.79960735,9.29740481 5.12753147,9.48673635 C5.45545558,9.67606798 5.87497413,9.56364398 6.06430492,9.23571848 C6.25363569,8.90779295 6.1412122,8.48853962 5.81328808,8.29920803 C5.48536398,8.10987643 5.06584542,8.22203337 4.87651464,8.55022594 Z M10.4454832,7.19010941 C10.0956619,7.33484527 9.92956352,7.73593985 10.0742987,8.08576269 C10.219301,8.43585256 10.6203939,8.60195165 10.9702152,8.45694875 C11.3200366,8.3122129 11.4861349,7.91111832 11.3413996,7.56129548 C11.1963974,7.2112056 10.7953046,7.04510651 10.4454832,7.19010941 Z M14.4722204,7.56132218 C14.3274852,7.91114501 14.4935836,8.31223959 14.8434048,8.45697546 C15.1932262,8.60197836 15.594319,8.43561223 15.7393213,8.0857894 C15.8840566,7.73596656 15.7179582,7.33487198 15.3681368,7.19013612 C15.0183156,7.04513322 14.6172227,7.2112323 14.4722204,7.56132218 Z M12.9068367,6.70049097 C12.5281752,6.70049097 12.2210801,7.00732031 12.2210801,7.3859835 C12.2210801,7.76491373 12.5281752,8.07174308 12.9068367,8.07174308 C13.2854983,8.07174308 13.5925934,7.76491373 13.5925934,7.3859835 C13.5925934,7.00732031 13.2854983,6.70049097 12.9068367,6.70049097 Z M18.4938305,6.62980539 C18.2259902,6.8973798 18.2259902,7.33158738 18.4938305,7.59942884 C18.7614037,7.86727029 19.1956095,7.86727029 19.4634498,7.59942884 C19.7312901,7.33158738 19.7312901,6.8973798 19.4634498,6.62980539 C19.1956095,6.36196393 18.7614037,6.36196393 18.4938305,6.62980539 Z M6.35027717,6.62977868 C6.08243687,6.89762014 6.08243687,7.33182772 6.35027717,7.59940214 C6.61811747,7.86724359 7.05205613,7.86724359 7.31989643,7.59940214 C7.58773672,7.33182772 7.58773672,6.89762014 7.31989643,6.62977868 C7.05205613,6.36193723 6.61811747,6.36193723 6.35027717,6.62977868 Z M16.6063975,5.40721463 C16.4170667,5.73514016 16.5294903,6.15439349 16.8574143,6.34372508 C17.1853385,6.53305668 17.60459,6.42089974 17.7939208,6.09297421 C17.9832516,5.76504868 17.8710951,5.34552831 17.543171,5.15619671 C17.2149798,4.96686512 16.7957283,5.0792891 16.6063975,5.40721463 Z M8.27052921,5.15619671 C7.9426051,5.34552831 7.8301816,5.76504868 8.01951238,6.09297421 C8.20884316,6.42089974 8.62836171,6.53305668 8.95628582,6.34372508 C9.28420994,6.15439349 9.39663344,5.73514016 9.20730265,5.40721463 C9.01797187,5.0792891 8.59845332,4.96686512 8.27052921,5.15619671 Z M14.4670933,4.71464553 C14.3688228,5.08049079 14.5859257,5.45648357 14.9517694,5.55448737 C15.3176131,5.65249118 15.6936042,5.43538739 15.7916076,5.06980917 C15.8896109,4.70369687 15.6725082,4.32797112 15.3066645,4.22996732 C14.9408208,4.13196352 14.5650967,4.34880027 14.4670933,4.71464553 Z M10.5069823,4.22996732 C10.1411386,4.32797112 9.92403583,4.70369687 10.0220392,5.06980917 C10.1200426,5.43538739 10.4960337,5.65249118 10.8618774,5.55448737 C11.227721,5.45648357 11.4448239,5.08049079 11.3465535,4.71464553 C11.2485501,4.34880027 10.872826,4.13169647 10.5069823,4.22996732 Z M12.9068367,3.91397849 C12.5281752,3.91397849 12.2210801,4.22080783 12.2210801,4.59973807 C12.2210801,4.97840127 12.5281752,5.28523061 12.9068367,5.28523061 C13.2854983,5.28523061 13.5925934,4.97840127 13.5925934,4.59973807 C13.5925934,4.22080783 13.2854983,3.91397849 12.9068367,3.91397849 Z" id="path-2"></path>
        <filter x="-13.5%" y="-13.5%" width="126.9%" height="126.9%" filterUnits="objectBoundingBox" id="filter-3">
            <feGaussianBlur stdDeviation="3" in="SourceAlpha" result="shadowBlurInner1"></feGaussianBlur>
            <feOffset dx="0" dy="1" in="shadowBlurInner1" result="shadowOffsetInner1"></feOffset>
            <feComposite in="shadowOffsetInner1" in2="SourceAlpha" operator="arithmetic" k2="-1" k3="1" result="shadowInnerInner1"></feComposite>
            <feColorMatrix values="0 0 0 0 1   0 0 0 0 1   0 0 0 0 1  0 0 0 0.5 0" type="matrix" in="shadowInnerInner1"></feColorMatrix>
        </filter>
    </defs>
    <g id="sport-type/icon-sbtech" stroke="none" stroke-width="1" fill="none" fill-rule="evenodd">
        <g id="Combined-Shape" transform="translate(2, 2)">
            <use fill="url(#linearGradient-1)" fill-rule="evenodd" xlink:href="#path-2"></use>
            <use fill="black" fill-opacity="1" filter="url(#filter-3)" xlink:href="#path-2"></use>
        </g>
    </g>
</svg>