<?xml version="1.0" encoding="UTF-8"?>
<svg width="30px" height="30px" viewBox="0 0 30 30" version="1.1" xmlns="http://www.w3.org/2000/svg" xmlns:xlink="http://www.w3.org/1999/xlink">
    <title>sport-type/icon-horsebook</title>
    <defs>
        <linearGradient x1="50%" y1="0.458916084%" x2="50%" y2="100%" id="linearGradient-1">
            <stop stop-color="#FFC664" offset="0%"></stop>
            <stop stop-color="#FF8313" offset="100%"></stop>
        </linearGradient>
        <path d="M5.82907817,15.1849493 C5.78678949,14.553076 5.74784358,13.9209259 5.69945302,13.2895509 C5.69006143,13.1670081 5.73903565,13.1089208 5.83104138,13.0572568 C7.0664332,12.3629769 8.05313364,11.4132012 8.64475065,10.0612437 C8.71744261,9.89523229 8.80430154,9.72888864 8.83804758,9.55296528 C8.90569886,9.20078631 9.11655859,9.02187275 9.41236709,8.87053547 C10.1035243,8.51697215 10.7780208,8.12819093 11.4600517,7.75513594 C11.5074341,7.72927626 11.5165604,7.69904203 11.5070097,7.64665818 C11.3755274,6.92657401 11.24569,6.20615759 11.1163833,5.48563043 C11.1095385,5.44714547 11.110865,5.40711003 11.1084243,5.36779445 C11.1399418,5.38750761 11.173847,5.40400908 11.2026585,5.42732156 C12.4539683,6.44116507 13.8424908,7.16601141 15.3156967,7.78393045 C17.6517084,8.76371892 19.3683528,10.5186887 20.5496767,12.839083 C20.6247563,12.9865441 21.2179121,14.6092807 21.0151705,15.3483582 C20.2547171,18.1199956 17.9840751,20.0833933 15.2405109,20.3081566 C15.1632028,20.3144692 14.9537226,20.3118113 14.6215151,20.3099839 C14.3215148,20.3083227 13.837397,20.2597597 13.2680121,20.211252 C13.8212668,18.8041974 14.543411,17.4331358 14.0922964,15.819093 C13.8486988,14.9473393 13.3826744,14.2301899 12.7342833,13.6344205 C12.679844,13.5843624 12.660371,13.6457722 12.639943,13.6736253 C12.1718492,14.3104823 11.6632178,14.882607 10.8756508,15.0994518 C10.2994212,15.2581538 9.73672178,15.227089 9.17370401,15.0621297 C9.04689104,15.0249737 8.97377461,15.1008361 8.89689093,15.1649593 C8.18647298,15.7572955 7.39986112,16.0261919 6.47900792,15.8821086 C5.87672589,15.7879174 5.87173826,15.8223047 5.82907817,15.1849493 L5.82907817,15.1849493 Z M24.8767582,4.18212526 L24.8767582,23.9037045 L24.8767582,24.1982945 L24.8767582,25.6994296 C24.8767582,25.866327 24.7459127,26.0028795 24.5859373,26.0028795 L7.89278686,26.0028795 C6.92778789,26.0028795 6.13820469,25.1789136 6.13820469,24.1718257 L6.13820469,24.1718257 C6.13820469,24.0243646 6.25382204,23.9037045 6.39512034,23.9037045 L22.8656848,23.9037045 C22.8656318,23.9007143 22.8652604,23.8978349 22.8652604,23.8948447 L22.8652604,2 L22.7946908,2 L5.52202098,2 C4.68494924,2 4,2.71476826 4,3.58840467 L4,23.9028185 C4,26.1562656 5.76667982,28 7.92594925,28 L26.7456843,28 C26.885603,28 27,27.8805582 27,27.7345368 L27,6.33905532 L24.8767582,4.18212526 Z" id="path-2"></path>
        <filter x="-15.2%" y="-13.5%" width="130.4%" height="126.9%" filterUnits="objectBoundingBox" id="filter-3">
            <feGaussianBlur stdDeviation="3" in="SourceAlpha" result="shadowBlurInner1"></feGaussianBlur>
            <feOffset dx="0" dy="1" in="shadowBlurInner1" result="shadowOffsetInner1"></feOffset>
            <feComposite in="shadowOffsetInner1" in2="SourceAlpha" operator="arithmetic" k2="-1" k3="1" result="shadowInnerInner1"></feComposite>
            <feColorMatrix values="0 0 0 0 1   0 0 0 0 1   0 0 0 0 1  0 0 0 0.5 0" type="matrix" in="shadowInnerInner1"></feColorMatrix>
        </filter>
    </defs>
    <g id="sport-type/icon-horsebook" stroke="none" stroke-width="1" fill="none" fill-rule="evenodd">
        <g id="HorseBook">
            <use fill="url(#linearGradient-1)" fill-rule="evenodd" xlink:href="#path-2"></use>
            <use fill="black" fill-opacity="1" filter="url(#filter-3)" xlink:href="#path-2"></use>
        </g>
    </g>
</svg>