<?xml version="1.0" encoding="UTF-8"?>
<svg width="30px" height="30px" viewBox="0 0 30 30" version="1.1" xmlns="http://www.w3.org/2000/svg" xmlns:xlink="http://www.w3.org/1999/xlink">
    <title>sport-type/icon-awcme1sport</title>
    <defs>
        <linearGradient x1="50%" y1="2.46519033e-30%" x2="50%" y2="100%" id="linearGradient-1">
            <stop stop-color="#74AEFF" offset="0%"></stop>
            <stop stop-color="#0083FF" offset="100%"></stop>
        </linearGradient>
        <path d="M14.9685328,4.01855865 C15.7177452,4.41798409 16.8376874,4.9857405 18.0124932,5.47689721 L24.6534309,5.58941225 C23.1017403,5.01559144 21.7912843,4.18659523 21.4345221,4.02350438 C21.5601109,4.31382965 21.6444483,4.69623949 21.3971177,4.69623949 C21.3764032,4.69623949 21.3534398,4.69358999 21.3279314,4.68793775 C19.0196303,4.3218959 14.9680593,2 14.9680593,2 C14.9680593,2 10.9209864,4.3218959 8.61523014,4.68793775 C8.58978096,4.69358999 8.56681749,4.69623949 8.54616223,4.69623949 C8.29918667,4.69623949 8.38328739,4.31382965 8.50881702,4.02350438 C8.18697347,4.17075718 7.08875194,4.86086119 5.73763647,5.41590004 C7.75481063,5.39376207 9.9208922,5.39753024 12.0757879,5.41425146 C13.1947831,4.93804967 14.2514573,4.40120397 14.9685328,4.01855865 Z M18.0312546,6.36050235 L25.9651298,6.49491985 L24.9233699,20.8090583 L27.5246919,20.876061 L28,23.4769777 L22.2906804,23.2780892 L23.4066571,9.54583783 L16.5817158,9.50951035 L18.0312546,6.36050235 Z M22.8548298,10.1903117 L21.8302926,23.3376733 L12.8789231,23.1942476 L14.0957497,20.4554396 L19.984575,20.5515278 L20.5910944,12.7000859 L15.1321829,12.6585184 L16.4557186,10.254606 L22.8548298,10.1903117 Z M17.2865993,6.35767624 C16.744709,7.59239777 16.363918,8.41409315 15.8986713,9.51210097 C13.1599828,9.47277075 10.759532,9.57262711 8.01746999,9.59594263 C7.97124716,10.8392603 7.92496515,12.0826369 7.87874229,13.3260134 C9.11359693,13.3155383 10.1496277,13.3082954 11.1766838,13.3072989 L11.7371473,13.307393 C12.6735733,13.3086426 13.6311094,13.3155076 14.7523922,13.3302526 C14.4326419,14.0141001 14.1793714,14.562203 13.9333014,15.0955526 L13.7860493,15.4147599 C13.6141567,15.7873614 13.4399832,16.164591 13.2431958,16.5879486 C10.676319,16.5542117 10.3248242,16.6331666 7.75492902,16.6550101 L7.61620129,20.3850809 C7.86742848,20.3829504 8.0995472,20.3817496 8.3162013,20.3813271 L8.63003944,20.3812582 C9.3139768,20.3823339 9.8416715,20.3914545 10.3543461,20.4027459 L10.5589496,20.4073643 L10.7639595,20.4121306 C11.5188621,20.4297766 12.3224641,20.4487224 13.6203173,20.450435 C13.227512,21.3378966 12.8859601,22.1989222 12.4030172,23.2375226 C11.4100616,23.2260822 10.308469,23.2151937 9.01607888,23.2145356 L8.68895884,23.2145898 C7.25380183,23.2157968 5.58668724,23.2299568 3.58315501,23.2693753 C3.66344942,20.7251909 3.73553091,18.2767862 3.80658575,15.8403539 L3.8674061,13.7529608 C3.93846094,11.3165286 4.01054242,8.86812386 4.09083683,6.32393939 C8.19756744,6.24315935 13.18703,6.29879866 17.2865993,6.35767624 Z M26.8817565,6.12982004 C27.0420273,6.14395064 27.2014103,6.15154586 27.3592545,6.15154586 C27.4817065,6.15154586 27.6030341,6.14701229 27.7232962,6.13759187 C28.097222,7.69637557 28.2805152,13.5419174 26.0332922,17.78858 L26.8817565,6.12982004 Z M2.93153134,15.3910853 C2.93750895,15.1870745 2.94342735,14.9825927 2.94934577,14.7795829 C3.02912603,12.0403627 3.11156958,9.20788056 3.2035418,6.29620804 L3.20928266,6.11551277 C3.00148703,6.13876943 2.79475672,6.15154586 2.59063048,6.15154586 C2.46853353,6.15154586 2.34696926,6.14701229 2.22700293,6.13759187 C1.92031053,7.41764914 1.74240293,11.588654 2.93153134,15.3910853 Z M10.7103913,24.1045066 C9.86470865,24.0985011 8.94042942,24.0957339 7.90594925,24.0999142 C9.79197132,25.6853105 12.9292652,28.1729469 14.9680416,29 C16.9574584,28.1938484 19.9916534,25.8101898 21.8923531,24.2219674 L19.1385135,24.1778092 C17.7245444,25.2892411 16.1740967,26.4109177 14.968515,27.0475609 C13.737721,26.3968459 12.1472647,25.2395484 10.7103913,24.1045066 Z" id="path-2"></path>
        <filter x="-13.5%" y="-13.0%" width="126.9%" height="125.9%" filterUnits="objectBoundingBox" id="filter-3">
            <feGaussianBlur stdDeviation="3" in="SourceAlpha" result="shadowBlurInner1"></feGaussianBlur>
            <feOffset dx="0" dy="1" in="shadowBlurInner1" result="shadowOffsetInner1"></feOffset>
            <feComposite in="shadowOffsetInner1" in2="SourceAlpha" operator="arithmetic" k2="-1" k3="1" result="shadowInnerInner1"></feComposite>
            <feColorMatrix values="0 0 0 0 1   0 0 0 0 1   0 0 0 0 1  0 0 0 0.5 0" type="matrix" in="shadowInnerInner1"></feColorMatrix>
        </filter>
    </defs>
    <g id="sport-type/icon-awcme1sport" stroke="none" stroke-width="1" fill="none" fill-rule="evenodd">
        <g id="Combined-Shape">
            <use fill="url(#linearGradient-1)" fill-rule="evenodd" xlink:href="#path-2"></use>
            <use fill="black" fill-opacity="1" filter="url(#filter-3)" xlink:href="#path-2"></use>
        </g>
    </g>
</svg>