<?xml version="1.0" encoding="UTF-8"?>
<svg width="30px" height="30px" viewBox="0 0 30 30" version="1.1" xmlns="http://www.w3.org/2000/svg" xmlns:xlink="http://www.w3.org/1999/xlink">
    <title>sport-type/icon-pinnacle</title>
    <defs>
        <linearGradient x1="50%" y1="0.899300152%" x2="50%" y2="98.8502666%" id="linearGradient-1">
            <stop stop-color="#FF476D" offset="0%"></stop>
            <stop stop-color="#FF0068" offset="100%"></stop>
        </linearGradient>
        <path d="M1.06702762,9.15255272 L1.06702762,8.09571315 L4.22126866,8.09571315 C4.46671085,8.09571315 4.61498714,7.98153623 4.61498714,7.7756803 C4.61498714,7.56982438 4.46671085,7.43877402 4.22126866,7.43877402 L2.37343159,7.43877402 C1.52308954,7.43877402 0.998506004,6.94719457 0.998506004,6.22782373 C0.998506004,5.50845289 1.48939038,5 2.38466464,5 L5.40186244,5 L5.40186244,6.05121509 L2.38466464,6.05121509 C2.21336059,6.05121509 2.09372859,6.14851858 2.09372859,6.34818758 C2.09372859,6.54785657 2.21336059,6.64516006 2.38466464,6.64516006 L4.22126866,6.64516006 C5.12833762,6.64516006 5.61304382,7.02762462 5.61304382,7.87298379 C5.61304382,8.60416603 5.1569819,9.15255272 4.22126866,9.15255272 L1.06702762,9.15255272 Z M7.56197837,8.06140383 L7.56197837,7.04449805 L8.99363086,7.04449805 C9.347472,7.04449805 9.55809173,6.85045353 9.55809173,6.54785657 C9.55809173,6.24525961 9.34691035,6.05121509 8.99363086,6.05121509 L7.05424441,6.05121509 L7.05424441,9.15255272 L6.00451569,9.15255272 L6.00451569,5 L8.99363086,5 C9.99730407,5 10.5904092,5.58832049 10.5904092,6.51354725 C10.5904092,7.43877402 9.99730407,8.06140383 8.99363086,8.06140383 L7.56197837,8.06140383 L7.56197837,8.06140383 Z M12.8420745,9.15255272 C11.638453,9.15255272 10.7544118,8.23857491 10.7544118,7.0332491 C10.7544118,5.82792328 11.638453,5 12.8420745,5 L13.8856251,5 C15.1235074,5 15.9789043,5.82848573 15.9789043,7.0332491 C15.9789043,8.23801246 15.1004797,9.15255272 13.8856251,9.15255272 L12.8420745,9.15255272 Z M13.8856251,8.09571315 C14.501758,8.09571315 14.9291756,7.67275234 14.9291756,7.0849943 C14.9291756,6.49723626 14.4955798,6.05121509 13.8856251,6.05121509 L12.8420745,6.05121509 C12.2489694,6.05121509 11.809757,6.49104934 11.809757,7.0849943 C11.809757,7.67893927 12.2377363,8.09571315 12.8420745,8.09571315 L13.8856251,8.09571315 Z M19.3881357,5 C20.3861923,5 20.9792975,5.61138085 20.9792975,6.56529246 C20.9792975,7.2447295 20.6602788,7.70199963 20.1525448,7.90729311 L21.3904272,9.15255272 L19.8958696,9.15255272 L18.9264572,8.04453039 L17.8997562,8.04453039 L17.8997562,7.15923742 L19.3881357,7.15923742 C19.7363603,7.15923742 19.94698,6.94213254 19.94698,6.60522626 C19.94698,6.26831998 19.7357986,6.05121509 19.3881357,6.05121509 L17.3920223,6.05121509 L17.3920223,9.15255272 L16.3422936,9.15255272 L16.3422936,5 L19.3881357,5 Z M25.1989935,5 L25.1989935,6.05121509 L23.7274637,6.05121509 L23.7274637,9.15255272 L22.6721184,9.15255272 L22.6721184,6.05121509 L21.1949721,6.05121509 L21.1949721,5 L25.1989935,5 Z M25.4539838,9.15255272 L25.4539838,8.09571315 L28.6082248,8.09571315 C28.853667,8.09571315 29.0019433,7.98153623 29.0019433,7.7756803 C29.0019433,7.56982438 28.853667,7.43877402 28.6082248,7.43877402 L26.7603878,7.43877402 C25.9100457,7.43877402 25.3854622,6.94719457 25.3854622,6.22782373 C25.3854622,5.50845289 25.8763466,5 26.7716208,5 L29.7888186,5 L29.7888186,6.05121509 L26.7716208,6.05121509 C26.6003168,6.05121509 26.4806848,6.14851858 26.4806848,6.34818758 C26.4806848,6.54785657 26.6003168,6.64516006 26.7716208,6.64516006 L28.6082248,6.64516006 C29.5152938,6.64516006 30,7.02762462 30,7.87298379 C30,8.60416603 29.5439381,9.15255272 28.6082248,9.15255272 L25.4539838,9.15255272 Z M11.8202763,13 C12.1288893,13 12.4058498,13.0933939 12.6501685,13.2812934 C12.8944872,13.469193 13.0992401,13.7093487 13.2664055,14.0039841 L13.6590958,14.4253683 C13.8134024,14.598814 13.947926,14.7967201 14.0606885,15.0168628 C14.1734509,15.2381173 14.2684088,15.4682665 14.3465512,15.709534 C14.4237045,15.9508014 14.4800857,16.1876216 14.5156949,16.4222181 C14.5513041,16.6568146 14.5691087,16.8736218 14.5691087,17.0748633 L14.5691087,17.1148893 C14.5691087,17.3694987 14.5334995,17.6263319 14.461292,17.8876123 C14.3900736,18.1488928 14.2941266,18.3957194 14.1754292,18.6303159 C14.0567319,18.8649124 13.9192408,19.0750486 13.7649343,19.2618364 C13.6106277,19.4497359 13.4503863,19.6031687 13.2832209,19.7232465 C13.3544393,19.8310942 13.4286252,19.9511721 13.5067676,20.0845919 C13.5839208,20.2180117 13.6284323,20.3992402 13.6403021,20.6260539 C13.6403021,20.8395256 13.6046929,21.0774576 13.5324853,21.3387381 C13.4612669,21.6000185 13.3959834,21.8234967 13.3366347,22.0113963 L13.3188301,22.0113963 L13.2644272,22.231539 C13.0745114,22.7263041 12.8895414,23.1488001 12.7105063,23.4956917 C12.5324603,23.843695 12.2970439,24.1283239 12.0052463,24.3484666 C11.7134487,24.5697211 11.3415304,24.7331604 10.8894913,24.8398962 C10.4364632,24.9466321 9.84198736,25 9.10408559,25 L0.8209899,25 L0.142436802,24.2372834 L0,24.2372834 L0.500507096,23.394515 C0.524246563,23.367831 0.545018597,23.334476 0.562823197,23.2944501 C0.581616941,23.2544242 0.602388975,23.2210692 0.626128442,23.1943852 C0.863523112,22.806356 1.10784179,22.4249977 1.35809534,22.0503104 C1.60834889,21.6756231 1.89322249,21.2942648 2.21469444,20.9062355 L4.08912319,20.9062355 L3.62521444,20.3847864 L3.42936384,20.3847864 L6.76772638,17.0937645 L3.50058224,17.0937645 L2.82202914,16.3310479 L2.66178774,16.3310479 C2.99512942,15.7295469 3.33638426,15.1469471 3.68851969,14.5854721 C4.03966597,14.023997 4.42345402,13.495877 4.83988383,13 L11.8202763,13 Z M25.2083465,13 C25.5416882,13 25.8364533,13.0967294 26.0916525,13.2912999 C26.3478409,13.4858705 26.5595178,13.7293616 26.7256941,14.023997 L27.1183845,14.4453813 C27.4042472,14.7533587 27.614935,15.1413879 27.7524261,15.6094691 C27.888928,16.0775503 27.9581681,16.5056055 27.9581681,16.8936348 L27.9581681,17.1749282 C27.9581681,17.4295377 27.8988194,17.7163903 27.779133,18.0377096 C27.6713162,18.3990549 27.5199771,18.7270453 27.3241265,19.0216807 C27.1272868,19.3163161 26.909675,19.5498008 26.6722803,19.7232465 C26.7434987,19.8310942 26.8176846,19.9511721 26.8948378,20.0845919 C26.9719911,20.2180117 27.0165026,20.3992402 27.0283723,20.6260539 L27.0283723,20.6860928 C27.0283723,20.8595386 27.0016654,21.0507736 26.9482516,21.2575744 C26.8938487,21.4654869 26.8384566,21.6556101 26.7781188,21.8290559 L26.7603142,21.8290559 L26.6524974,22.2304271 C26.4615925,22.7251923 26.2776117,23.1476883 26.0985765,23.4945798 C25.9205305,23.8425832 25.6851141,24.1272121 25.3933165,24.3473548 C25.1015189,24.5686093 24.7296006,24.7320485 24.2775616,24.8387844 C23.8255226,24.9455202 23.2300576,24.9988882 22.493145,24.9988882 L17.1735261,24.9988882 C16.494973,24.9988882 15.9628133,24.9521912 15.5760578,24.8587974 C15.1893023,24.7642917 14.9073961,24.6175299 14.728361,24.4174002 L14.2466476,23.8759381 C14.0329924,23.7558603 13.8806642,23.5979802 13.7916412,23.4045214 C13.7026182,23.2110627 13.6581067,22.9798017 13.6581067,22.7118503 C13.6581067,22.4983786 13.6818461,22.2704531 13.7293251,22.0291856 C13.776804,21.7890299 13.8480224,21.5144075 13.9429803,21.2064301 L14.0320033,20.9051237 C14.1032217,20.7316779 14.1892773,20.5204299 14.2911591,20.2736033 C14.3920519,20.0256648 14.5087709,19.8021866 14.639338,19.6009451 C14.7580353,19.4274993 14.8797001,19.2829612 15.0053214,19.1695543 C15.1299536,19.0561475 15.2585424,18.9527472 15.3891095,18.8582415 L15.3356957,18.8582415 C15.4306535,18.8048735 15.4959371,18.7648476 15.5315463,18.7381636 C15.4484581,18.5914018 15.3920769,18.4312981 15.3624026,18.2567405 C15.3327282,18.0832947 15.3178911,17.9020662 15.3178911,17.7152784 C15.3178911,17.3672751 15.3535003,17.0326137 15.4257078,16.7124062 C15.4969262,16.3910868 15.5859492,16.1175762 15.693766,15.8896507 L15.782789,15.6283702 C15.8658771,15.3348467 15.9845744,15.0302048 16.1398701,14.7155564 C16.2941767,14.400908 16.5216799,14.1173909 16.8184232,13.8627814 C17.1151666,13.608172 17.5078569,13.4013713 17.9964943,13.2401557 C18.4851316,13.0800519 19.1152167,13 19.8887276,13 L25.2083465,13 Z M25.2053791,13.3035301 L19.8857602,13.3035301 C19.1597282,13.3035301 18.5642632,13.3802465 18.1003544,13.5347911 C17.6364457,13.6882238 17.2674948,13.8827944 16.9935018,14.1162791 C16.7185196,14.3508756 16.5107993,14.6110442 16.3683625,14.8990086 C16.2259257,15.186973 16.1121741,15.4638191 16.0290859,15.7317706 L15.9222583,16.05309 C15.8292788,16.250996 15.7491581,16.5011582 15.6838745,16.8024646 C15.6176019,17.103771 15.5849601,17.407301 15.5849601,17.7152784 C15.5849601,17.9554341 15.6126561,18.1733531 15.6660699,18.3679237 C15.7194837,18.5624942 15.8124633,18.6992495 15.9430304,18.7793014 C15.824333,18.8860372 15.6601351,19.0138979 15.4524147,19.1606597 C15.2437052,19.3085333 15.0438981,19.515334 14.8539823,19.7832855 C14.7342959,19.9567312 14.6245008,20.1613083 14.5236081,20.3959048 C14.4227153,20.6305013 14.3425946,20.8339665 14.2822568,21.008524 L14.1932338,21.3098304 C14.1101457,21.5911239 14.0448622,21.847957 13.9963941,22.0825535 C13.9489152,22.31715 13.9251757,22.5272862 13.9251757,22.7140739 C13.9251757,22.9286575 13.9637523,23.1121097 14.0409056,23.2666543 C14.1180589,23.4200871 14.2555499,23.5479477 14.4514005,23.6480126 C14.6472511,23.7480775 14.906407,23.8214584 15.2278789,23.8692671 C15.5483617,23.9159641 15.953911,23.9393125 16.4415592,23.9393125 L21.7611781,23.9393125 C22.4634706,23.9393125 23.0312396,23.8892801 23.4664631,23.7892152 C23.9006975,23.6891504 24.2538221,23.5357176 24.5288043,23.3278051 C24.8018081,23.1210044 25.0253548,22.8497174 25.1974659,22.5150561 C25.3695771,22.1803947 25.5456448,21.7801353 25.7246799,21.3109423 L25.8493121,20.909571 C25.9096499,20.7494672 25.9630637,20.5715742 26.0095535,20.3781154 C26.0570325,20.1846567 26.0807719,20.0134346 26.0807719,19.8666728 L26.0807719,19.8066339 C26.0689022,19.5386825 26.0036187,19.3318818 25.8849213,19.1840082 C25.7652348,19.0372464 25.6821467,18.9104975 25.6346678,18.8026499 C25.8849213,18.682572 26.1193486,18.4679885 26.3399278,18.161123 C26.560507,17.8531456 26.7286616,17.5118132 26.848348,17.1371259 C26.9551756,16.8436023 27.0085894,16.5823219 27.0085894,16.3543964 L27.0085894,16.0731029 C27.0085894,15.7918095 26.9729802,15.4905031 26.9017618,15.1702956 C26.8295543,14.8489762 26.7167918,14.5510053 26.5624853,14.2774947 C26.4081787,14.0039841 26.2172739,13.7727231 25.9907598,13.5848235 C25.7642457,13.3980358 25.5021224,13.3035301 25.2053791,13.3035301 Z M11.8192871,13.2979709 L4.94572229,13.2979709 C4.57677141,13.7260261 4.24936459,14.1707588 3.96350184,14.632169 C3.6776391,15.0935792 3.40364608,15.5583248 3.14251194,16.026406 L9.81923704,16.026406 C9.8429765,16.026406 9.89935774,16.0831094 9.98838074,16.1965163 C10.0774037,16.3099231 10.1397198,16.3999815 10.175329,16.4678032 C10.1871988,16.5211711 10.1990685,16.5545261 10.2109382,16.5678681 L10.175329,16.6679329 C10.1634593,16.7079589 10.1367524,16.7646623 10.0942192,16.8380432 C10.0526751,16.9114241 10.0081636,16.9881405 9.9606847,17.0693042 C9.91320576,17.1504679 9.86869426,17.2194015 9.82715019,17.2794404 C9.78560613,17.3394793 9.75889923,17.3694987 9.74702949,17.3694987 L6.8903803,17.3694987 L4.1405587,20.0779209 L8.96065965,20.0779209 C8.96065965,20.1713147 8.95769221,20.2658204 8.95175735,20.3592143 C8.94483334,20.4526082 8.93098531,20.5193181 8.90724585,20.559344 L8.87163665,20.6594089 C8.85976691,20.6727509 8.83602745,20.7061058 8.80041825,20.7594737 C8.76480904,20.7994997 8.71139524,20.8428611 8.64017684,20.889558 L8.42652164,21.0296488 C8.35530324,21.0763458 8.25935623,21.1330492 8.14065889,21.1997591 L2.32152204,21.1997591 C1.98818036,21.5944594 1.67857815,22.0191791 1.3927154,22.4805893 C1.10685265,22.9419994 0.810109311,23.4267581 0.500507096,23.9348652 L8.37310784,23.9348652 C9.07638955,23.9348652 9.64316932,23.8848328 10.0783929,23.7847679 C10.5126273,23.684703 10.866741,23.5312703 11.140734,23.3233577 C11.4137379,23.116557 11.6372846,22.8452701 11.8093957,22.5106087 C11.982496,22.1759474 12.1585637,21.7756879 12.3366097,21.306495 L12.4078281,21.0852404 C12.4671768,20.9117947 12.5294929,20.7005467 12.5947764,20.45372 C12.6600599,20.2057815 12.6927017,19.9889743 12.6927017,19.8010748 C12.680832,19.5331233 12.6155484,19.3263226 12.4968511,19.178449 C12.3781538,19.0316872 12.2940765,18.9049384 12.2475867,18.7970907 C12.413763,18.7170388 12.5799392,18.59029 12.7471046,18.4157324 C12.9132809,18.2422867 13.0626417,18.0377096 13.1932088,17.8031131 C13.3237759,17.5696285 13.427636,17.32169 13.5057784,17.0604095 C13.5829317,16.7991291 13.6215083,16.5422959 13.6215083,16.2876865 L13.6215083,16.2476605 C13.6215083,15.9797091 13.5858991,15.676179 13.5146807,15.3348467 C13.4424732,14.9935143 13.3326782,14.6721949 13.1843065,14.3720004 C13.0349457,14.070694 12.8479974,13.8171963 12.6224724,13.6092838 C12.3959584,13.4024831 12.1279002,13.2979709 11.8192871,13.2979709 Z M22.4763295,19.8622255 C22.4763295,19.9556194 22.4525901,20.0868155 22.4051111,20.2535903 C22.3576322,20.4214769 22.322023,20.5248772 22.2982835,20.5649032 L22.2626743,20.664968 C22.2508046,20.67831 22.2270651,20.711665 22.1914559,20.7650329 C22.1558467,20.8050588 22.1024329,20.8484203 22.0312145,20.8951172 C21.9599961,20.9418141 21.8887777,20.9885111 21.8165702,21.035208 C21.7453518,21.0819049 21.6494048,21.1386084 21.5307074,21.2053183 L18.4247938,21.2053183 C18.4000652,21.2064301 18.3456623,21.1497267 18.2635633,21.0363198 C18.1804751,20.922913 18.1211265,20.8328546 18.0845281,20.7650329 L18.1023327,20.704994 C18.1023327,20.691652 18.1053002,20.6816455 18.111235,20.6749745 C18.1171699,20.6683035 18.1201373,20.658297 18.1201373,20.6449551 L18.1023327,20.6049291 L18.3525863,19.8622255 L22.4763295,19.8622255 Z M23.2073073,16.0297415 C23.2429165,16.0430835 23.3022651,16.1031224 23.3863424,16.2098582 C23.4704197,16.3165941 23.5287792,16.403317 23.5653776,16.4711387 L23.5653776,16.6712684 C23.5416381,16.7513203 23.4822894,16.8713981 23.3863424,17.0326137 C23.2913846,17.1927175 23.226101,17.2727694 23.1904918,17.2727694 L20.8521543,17.2727694 L18.4594139,19.6009451 L19.4594389,16.4711387 C19.5177985,16.3243769 19.6256152,16.2131937 19.7799217,16.1398128 C19.9342283,16.0664319 20.042045,16.0297415 20.1013937,16.0297415 L23.2073073,16.0297415 Z" id="path-2"></path>
        <filter x="-11.7%" y="-17.5%" width="123.3%" height="135.0%" filterUnits="objectBoundingBox" id="filter-3">
            <feGaussianBlur stdDeviation="3" in="SourceAlpha" result="shadowBlurInner1"></feGaussianBlur>
            <feOffset dx="0" dy="1" in="shadowBlurInner1" result="shadowOffsetInner1"></feOffset>
            <feComposite in="shadowOffsetInner1" in2="SourceAlpha" operator="arithmetic" k2="-1" k3="1" result="shadowInnerInner1"></feComposite>
            <feColorMatrix values="0 0 0 0 1   0 0 0 0 1   0 0 0 0 1  0 0 0 0.5 0" type="matrix" in="shadowInnerInner1"></feColorMatrix>
        </filter>
    </defs>
    <g id="sport-type/icon-pinnacle" stroke="none" stroke-width="1" fill="none" fill-rule="evenodd">
        <g id="Combined-Shape">
            <use fill="url(#linearGradient-1)" fill-rule="evenodd" xlink:href="#path-2"></use>
            <use fill="black" fill-opacity="1" filter="url(#filter-3)" xlink:href="#path-2"></use>
        </g>
    </g>
</svg>