<?xml version="1.0" encoding="UTF-8"?>
<svg width="30px" height="30px" viewBox="0 0 30 30" version="1.1" xmlns="http://www.w3.org/2000/svg" xmlns:xlink="http://www.w3.org/1999/xlink">
    <title>sport-type/icon-sportbook</title>
    <defs>
        <linearGradient x1="50%" y1="2.46519033e-30%" x2="50%" y2="100%" id="linearGradient-1">
            <stop stop-color="#EBDB9D" offset="0%"></stop>
            <stop stop-color="#C79936" offset="100%"></stop>
        </linearGradient>
        <path d="M15,2 C22.1779839,2.00414553 27.9958545,7.82201609 28,15 C28,22.1797017 22.1797017,28 15,28 C7.82029825,28 2,22.1797017 2,15 C2,7.82029825 7.82029825,2 15,2 Z M12.5953757,2.52601156 L11.7687861,2.75144509 C8.76336937,5.51653534 6.80005946,9.23090545 6.20809249,13.2716763 C5.30571686,11.7736482 4.62248329,10.1541316 4.17919075,8.46242775 C3.00682711,10.4147643 2.38371619,12.6475784 2.37572254,14.9248555 L2.37572254,15.7514451 C2.53289378,16.1251068 2.73474933,16.478354 2.97687861,16.8034682 C3.5091429,17.6309336 4.11258705,18.4103823 4.78034682,19.132948 C5.23665775,20.3174361 5.81593395,21.4508025 6.50867052,22.5144509 C6.73410405,22.8150289 6.88439306,23.0404624 7.10982659,23.3410405 C6.09261255,22.9115521 5.13329277,22.3561564 4.25433526,21.6878613 C5.55352335,23.6884736 7.37158064,25.2987529 9.51445087,26.3468208 C9.32143455,26.1091912 9.1456495,25.8580697 8.98843931,25.5953757 C9.35195228,26.0089633 9.75459564,26.3864415 10.1907514,26.7225434 C10.566474,26.8728324 10.9421965,27.0231214 11.3930636,27.1734104 C10.2441567,26.3622288 9.20811723,25.4019971 8.31213873,24.3179191 C9.73631836,24.8285816 11.2331485,25.1076516 12.7456647,25.1445087 L13.3468208,25.1445087 C14.612733,25.1446766 15.8741145,24.9933108 17.1040462,24.6936416 L17.3294798,24.6936416 C19.9619065,24.6637588 22.5545972,24.0476739 24.9190751,22.8901734 C25.0693642,22.6647399 25.2947977,22.3641618 25.4450867,22.1387283 C23.3337675,23.3638698 20.9676548,24.0839911 18.5317919,24.2427746 C19.7872171,23.8088358 20.9759446,23.201826 22.0635838,22.4393064 C23.2002201,22.4232418 24.3326468,22.2974166 25.4450867,22.0635838 C26.8570793,19.9778301 27.6157367,17.5187336 27.6242775,15 C27.6405319,14.3728249 27.6154293,13.7452604 27.5491329,13.1213873 C27.0361863,16.7517007 25.0175242,19.9979277 21.9884393,22.0635838 L21.6127168,22.0635838 C15.5104103,22.0939162 9.82603624,18.9675104 6.58381503,13.7976879 C7.15398522,9.4356173 9.29053304,5.42959013 12.5953757,2.52601156 Z M7.03468208,21.1618497 C9.26455698,22.8393639 11.869522,23.9484084 14.6242775,24.3930636 C14.8927251,24.4763651 15.170278,24.5268292 15.4508671,24.5433526 C14.5804591,24.672191 13.7002279,24.7224899 12.8208092,24.6936416 C11.1778978,24.6103257 9.55677783,24.2810357 8.01156069,23.716763 C7.60778328,22.8970985 7.28076144,22.0418106 7.03468208,21.1618497 Z M6.3583815,14.3988439 C9.79807169,19.2953609 15.3321034,22.298755 21.3121387,22.5144509 C19.9485877,23.3119551 18.4821409,23.9187606 16.9537572,24.3179191 C16.172187,24.3106361 15.3927408,24.2352058 14.6242775,24.0924855 C11.7539468,23.6231688 9.05822948,22.404912 6.80924855,20.5606936 C6.48030521,19.1051489 6.30401501,17.6192744 6.28323699,16.1271676 C6.26675202,15.5500027 6.29186518,14.9724001 6.3583815,14.3988439 Z M5.53179191,19.8843931 C5.83236994,20.1849711 6.20809249,20.4855491 6.43352601,20.7109827 C6.58933785,21.3751238 6.79018768,22.0278857 7.03468208,22.6647399 C6.95953757,22.5144509 6.88439306,22.4393064 6.80924855,22.2890173 C6.33771457,21.5126108 5.91119242,20.7097455 5.53179191,19.8843931 Z M3.95375723,9.36416185 C4.45619468,10.9284537 5.16370111,12.4192708 6.05780347,13.7976879 C5.98265896,14.5491329 5.90751445,15.300578 5.90751445,16.0520231 C5.90726872,17.3923232 6.05851778,18.7283566 6.3583815,20.0346821 C5.90751445,19.6589595 5.53179191,19.283237 5.15606936,18.9075145 C4.00576505,15.8663566 3.59370138,12.5956013 3.95375723,9.36416185 Z M20.2826013,11.120093 L17.5413563,16.0008217 L20.6742077,15.024676 L22.4364366,18.1483423 L24.1986654,18.1483423 L20.2826013,11.120093 Z M15.7845895,12.3251695 C15.7558385,12.3596942 15.7260638,12.3935089 15.6952831,12.4265667 C15.3511906,12.7630406 14.9128268,12.9798943 14.4448267,13.0529194 C14.5194369,13.1847346 14.5834277,13.2739316 14.5834277,13.4269283 C14.5838988,13.5977766 14.5179518,13.762161 14.399434,13.8855513 C14.2154454,13.9772759 14.123451,14.0690005 13.9394624,14.0690005 L12.651542,14.0690005 L12.6507107,13.0760435 L11.2707107,13.0760435 L11.2716273,18.0131584 L14.0314567,18.0131584 C14.5779767,18.0448705 15.1125172,17.8450055 15.5033657,17.4628108 C15.8609589,17.0572535 16.0572993,16.5352144 16.0553316,15.9952171 C16.044104,15.5290601 15.882844,15.078856 15.59536,14.7110727 C15.882844,14.3432894 16.044104,13.8930853 16.0553316,13.4269283 C16.0780828,13.037136 15.9819904,12.6534555 15.7845895,12.3251695 Z M19.9940404,15.4736329 L17.3045544,16.3268696 L16.5710582,17.66767 L18.7715468,17.66767 L19.9940404,15.4736329 Z M13.9394624,15.3531398 C14.1108131,15.3526701 14.2756809,15.4184238 14.399434,15.5365941 C14.4914283,15.7200433 14.5834277,15.8117679 14.5834277,15.9952171 C14.5838988,16.1660655 14.5179518,16.3304498 14.399434,16.4538401 C14.2154454,16.5455647 14.123451,16.6372893 13.9394624,16.6372893 L12.651542,16.6372893 L12.651542,15.3531398 Z M12.9363122,5.05618915 C12.3506897,4.97639489 11.7640979,5.19572192 11.3754972,5.63977876 C10.9963047,6.06983236 10.788105,6.62340365 10.7901916,7.19601772 C10.7564651,7.77384942 10.9690255,8.33901532 11.3754972,8.75225668 C11.8068154,9.13033749 12.3620144,9.33792671 12.9363122,9.33584629 L13.7167197,9.33584629 C13.9118216,9.33584629 14.1069235,9.33584629 14.2044744,9.53037616 C14.3020253,9.72490603 14.3995763,9.82217097 14.3995763,10.0167008 C14.4000813,10.1978688 14.3301509,10.3721822 14.2044744,10.5030255 C14.0093725,10.6002904 13.9118216,10.6975554 13.7167197,10.6975554 L11.2779463,10.6975554 L11.2779463,12.2537943 L13.7167197,12.2537943 C14.2962505,12.287422 14.8630782,12.0754847 15.2775347,11.6702047 C15.670297,11.2483862 15.8805814,10.6892718 15.8628403,10.1139658 C15.8965668,9.53613407 15.6840064,8.97096817 15.2775347,8.55772681 C14.8462166,8.179646 14.2910175,7.97205677 13.7167197,7.9741372 L12.9363122,7.9741372 C12.7546116,7.97464072 12.5797856,7.90491534 12.4485575,7.77960733 C12.3510066,7.58507746 12.2534556,7.48781252 12.2534556,7.29328265 C12.2529506,7.11211474 12.322881,6.93780128 12.4485575,6.80695798 C12.6436594,6.70969304 12.7412103,6.61242811 12.9363122,6.61242811 L15.3750857,6.61242811 L15.3750857,5.05618915 Z M19.9927394,5.05342633 L17.2514944,9.93415504 L20.3843458,8.9580093 L22.1465746,12.0816757 L23.9088035,12.0816757 L19.9927394,5.05342633 Z M19.7041786,9.40696627 L16.9809664,10.2709025 L16.3620545,11.6285167 L18.5901372,11.6285167 L19.7041786,9.40696627 Z" id="path-2"></path>
        <filter x="-13.5%" y="-13.5%" width="126.9%" height="126.9%" filterUnits="objectBoundingBox" id="filter-3">
            <feGaussianBlur stdDeviation="3" in="SourceAlpha" result="shadowBlurInner1"></feGaussianBlur>
            <feOffset dx="0" dy="1" in="shadowBlurInner1" result="shadowOffsetInner1"></feOffset>
            <feComposite in="shadowOffsetInner1" in2="SourceAlpha" operator="arithmetic" k2="-1" k3="1" result="shadowInnerInner1"></feComposite>
            <feColorMatrix values="0 0 0 0 1   0 0 0 0 1   0 0 0 0 1  0 0 0 0.5 0" type="matrix" in="shadowInnerInner1"></feColorMatrix>
        </filter>
    </defs>
    <g id="sport-type/icon-sportbook" stroke="none" stroke-width="1" fill="none" fill-rule="evenodd">
        <g id="saba-number">
            <use fill="url(#linearGradient-1)" fill-rule="evenodd" xlink:href="#path-2"></use>
            <use fill="black" fill-opacity="1" filter="url(#filter-3)" xlink:href="#path-2"></use>
        </g>
    </g>
</svg>