<svg width="120" height="120" viewBox="0 0 120 120" fill="none" xmlns="http://www.w3.org/2000/svg">
<path d="M17.4082 106.893L26.2632 88.3907L23.2712 86.5977L17.4082 106.893Z" fill="#2972E3"/>
<path d="M43.5662 52.2448C40.2442 46.5688 38.5612 40.0458 38.7262 33.4678L38.6492 33.4238L26.4502 75.6198L31.0592 78.3808L43.5662 52.2558V52.2448Z" fill="#2972E3"/>
<path d="M94.6832 63.0032C88.5782 67.4032 81.2302 69.7242 73.7612 69.6802L57.8882 90.3382L64.7082 68.4262C61.6832 67.6012 58.7242 66.3582 55.9082 64.6752C52.5862 62.6842 49.7152 60.2312 47.3062 57.4482L28.8262 109.049L52.9602 73.1452L45.2712 113.119L95.0902 63.2452L94.6942 63.0032H94.6832Z" fill="#2972E3"/>
<path d="M100.348 21.7313C99.9185 21.3683 99.4785 21.0163 99.0605 20.6423C99.0055 20.5983 98.9725 20.5103 98.9725 20.4333C98.9395 19.9933 98.9175 19.5423 98.8955 19.1133C99.2255 19.6743 99.5775 20.2573 99.9185 20.8403C99.9625 20.9173 100.018 20.9943 100.073 21.0603L100.348 21.7203V21.7313Z" fill="#FFA35F"/>
<path d="M82.9783 47.3835C82.7693 47.4715 82.6043 47.5375 82.4503 47.6035C81.7243 47.9115 80.9873 48.2085 80.2723 48.5385C80.0193 48.6595 79.8763 48.6265 79.6893 48.4065C77.2803 45.5685 74.8383 42.7525 72.4403 39.9035C69.7563 36.7135 67.1053 33.5015 64.4323 30.3005C64.3113 30.1465 64.3113 30.0475 64.3993 29.8935C66.0163 27.1765 67.6223 24.4595 69.2393 21.7425C69.5583 21.2035 70.0973 20.9835 70.7023 21.1155C76.1913 22.3365 81.6363 23.6785 87.0483 25.1745C87.6863 25.3505 88.0383 25.7685 88.1043 26.4725C88.3133 28.6615 88.5553 30.8505 88.7093 33.0395C88.9623 36.4495 89.1603 39.8705 89.3803 43.2805C89.4353 44.1605 89.1823 44.5565 88.3793 44.9195C87.7633 45.1945 87.1253 45.4475 86.4763 45.7335C86.3993 45.4695 86.3113 45.1725 86.2233 44.8755C85.5853 42.6315 84.9473 40.3985 84.2873 38.1655C83.6713 36.0645 83.0113 33.9745 82.3733 31.8735C82.2083 31.3345 82.0323 30.8065 81.8783 30.2565C81.8233 30.0805 81.7353 30.0145 81.5593 29.9925C78.5453 29.6625 75.5203 29.3215 72.5063 28.9915H72.2203C75.8063 35.1295 79.3813 41.2235 82.9783 47.3835Z" fill="#FFA35F"/>
<path d="M60.2305 10.1374C60.1205 11.0504 60.3295 11.8534 60.5055 12.6674C60.5055 12.7114 60.6265 12.7774 60.6925 12.7664C62.5625 12.6454 64.4325 12.5134 66.3135 12.3924C66.3355 12.3924 66.3575 12.3704 66.4235 12.3484C65.4335 11.0724 64.5425 9.7304 63.2995 8.6524C63.3435 8.6304 63.3985 8.5864 63.4645 8.5644C64.1905 8.2784 64.9055 7.9484 65.6425 7.7174C65.9175 7.6294 66.2805 7.7174 66.5775 7.7944C67.4245 8.0584 68.1615 8.5424 68.8545 9.0594C69.8005 9.7744 70.7135 10.5224 71.6485 11.2594C71.6815 11.2814 71.7035 11.3144 71.7365 11.3474C71.3405 11.9524 70.9335 12.5464 70.5595 13.1514C69.8775 14.2294 69.1955 15.3184 68.5245 16.4074C68.1945 16.9354 67.8975 17.0784 67.2815 17.0014C63.8715 16.5174 60.4505 16.0884 57.0075 16.0444C56.6665 16.0444 56.4905 15.8904 56.5235 15.5824C56.6335 14.5924 56.7875 13.6134 57.1615 12.6894C57.4035 12.0954 57.8435 11.6994 58.3715 11.3694C58.9875 10.9844 59.5815 10.5664 60.2305 10.1374Z" fill="#FFA35F"/>
<path d="M46.7778 41.3339C47.4928 41.9499 48.3508 42.1259 49.1538 42.3459C49.7478 40.5419 50.3308 38.7599 50.9358 36.9229C49.3738 37.2529 47.8118 37.5939 46.2278 37.9239C46.1838 37.2969 46.1618 36.6259 46.0848 35.9659C46.0078 35.3829 46.1838 34.9099 46.6678 34.5909C47.3498 34.1179 48.0208 33.6339 48.7468 33.2379C49.7258 32.6989 50.7378 32.2479 51.7388 31.7419C51.9258 31.6539 52.0248 31.6539 52.1568 31.8519C53.2678 33.4909 54.4008 35.1079 55.5338 36.7359C55.9188 37.2859 55.9298 37.5829 55.5888 38.1549C54.0928 40.6409 52.6298 43.1489 51.4198 45.7889C51.2658 46.1189 51.1338 46.4709 50.9798 46.8009C50.8588 47.0649 50.6718 47.1419 50.4298 46.9879C49.5058 46.4049 48.5818 45.7889 47.9768 44.8539C47.7458 44.5019 47.6248 44.0839 47.4818 43.6769C47.3608 43.3469 47.2728 43.0059 47.1738 42.6649C47.0528 42.2249 46.9318 41.7959 46.7998 41.3229H46.7778V41.3339Z" fill="#FFA35F"/>
<path d="M93.6815 13.1408C92.9005 13.3058 92.3175 13.7458 91.7015 14.0868C92.4605 15.8798 93.2085 17.6508 93.9675 19.4328C94.5505 19.0258 96.1565 16.0778 96.0685 15.5278C96.1675 15.6268 96.2335 15.6928 96.2995 15.7698C96.7395 16.2978 97.1795 16.8368 97.6195 17.3648C97.9715 17.7828 98.1475 18.2668 98.0815 18.7948C98.0045 19.5098 97.9165 20.2248 97.7405 20.9178C97.4545 21.9958 97.0805 23.0628 96.7395 24.1408C96.6075 24.1188 96.5305 24.1078 96.4535 24.0858C94.6165 23.6238 92.7795 23.1618 90.9315 22.7218C90.4255 22.6008 90.1285 22.3148 90.0295 21.8088C89.5345 19.2568 88.9735 16.7048 88.2475 14.2078C88.0385 13.4708 87.7745 12.7558 87.5435 12.0298C87.4995 11.8758 87.4335 11.6998 87.4555 11.5568C87.4775 11.4578 87.6205 11.3148 87.7195 11.2928C88.6215 11.1058 89.5345 10.9298 90.4475 11.1058C90.8435 11.1828 91.2505 11.3478 91.5695 11.5678C92.2955 12.0628 92.9775 12.6348 93.6705 13.1738V13.1408H93.6815Z" fill="#FFA35F"/>
<path d="M68.5357 38.9355C71.5827 42.4995 74.6187 46.0305 77.6767 49.6055C77.6107 49.6385 77.5447 49.6825 77.4677 49.7155C76.0157 50.2985 74.5637 50.8815 73.1117 51.4535C72.3967 51.7395 71.9017 51.6295 71.3957 51.0575C69.4597 48.8465 67.5237 46.6245 65.5877 44.4025C65.4887 44.2815 65.4447 44.1935 65.5327 44.0395C66.5117 42.3675 67.4797 40.7065 68.4587 39.0345C68.4807 39.0015 68.5027 38.9795 68.5357 38.9355Z" fill="#FFA35F"/>
<path d="M99.4896 49.5613C98.9726 50.3203 98.4446 51.1453 97.8616 51.9153C97.7076 52.1243 97.3556 52.2453 97.0696 52.2893C96.5856 52.3663 96.0796 52.3773 95.5846 52.3553C94.7046 52.3003 93.8356 52.1903 92.9336 52.0913C92.9776 51.6293 93.0216 51.2333 93.0436 50.8373C93.1206 49.2643 93.2086 47.6913 93.2746 46.1293C93.2966 45.6013 93.4946 45.2383 93.9896 44.9963C95.6506 44.1933 97.3226 43.4233 98.9286 42.5433C99.9956 41.9713 100.975 41.2343 101.976 40.5633C102.262 40.3763 102.372 40.3983 102.449 40.7393C102.592 41.4323 102.636 42.1363 102.405 42.8183C102.053 43.8633 101.701 44.8973 101.349 45.9423H101.261L100.876 45.0403C99.5116 46.1843 98.1586 47.3063 96.7616 48.4613C97.6526 48.8243 98.5546 49.1983 99.5006 49.5833V49.5613H99.4896Z" fill="#FFA35F"/>
<path d="M69.4706 60.3745C69.3826 61.2875 69.2946 62.1455 69.2066 63.0365C68.7776 62.9375 68.3376 62.8495 67.9086 62.7395C67.4136 62.6075 66.9186 62.4645 66.4126 62.3215C66.1156 62.2445 65.9506 62.0355 65.8296 61.7825C65.3676 60.8695 65.1806 59.8685 64.9936 58.8785C64.9386 58.6035 64.9056 58.3395 64.8506 58.0315C65.1146 57.9655 65.3786 57.9105 65.6316 57.8445C67.2596 57.4155 68.8876 56.9975 70.5156 56.5465C71.1206 56.3705 71.5826 56.4585 72.0226 56.9425C73.4416 58.5045 74.9046 60.0115 76.5436 61.3425C77.1486 61.8375 77.8306 62.2555 78.4796 62.7065C78.5456 62.7615 78.6006 62.8275 78.6666 62.8935C78.6006 62.9485 78.5456 63.0255 78.4796 63.0695C77.8636 63.3995 77.2036 63.5205 76.5106 63.5205C75.5096 63.5205 74.5196 63.5425 73.5186 63.5535C73.4636 63.5535 73.3976 63.5535 73.3316 63.5315C73.5516 63.3555 73.7606 63.2015 74.0026 63.0035C72.3746 62.2995 70.9446 61.3755 69.4926 60.3745H69.4706Z" fill="#FFA35F"/>
<path d="M63.2666 41.6305C63.1236 41.4655 62.9916 41.3115 62.8706 41.1575C62.0786 40.1895 61.2866 39.2215 60.5056 38.2425C60.0216 37.6485 59.9776 37.1315 60.3516 36.4605C61.1436 35.0635 61.9356 33.6775 62.7386 32.2915C62.7826 32.2255 62.8266 32.1595 62.8926 32.0605C63.2116 32.4455 63.4976 32.8085 63.7946 33.1605C64.5976 34.1395 65.4006 35.1295 66.2146 36.0975C66.3246 36.2295 66.3466 36.3285 66.2476 36.4825C65.2906 38.1325 64.3446 39.7825 63.3876 41.4325C63.3546 41.4875 63.3216 41.5315 63.2556 41.6195H63.2666V41.6305Z" fill="#FFA35F"/>
<path d="M48.725 31.6649C48.582 31.3349 48.45 31.0269 48.329 30.7189C48.098 30.1249 47.867 29.5419 47.636 28.9479C47.581 28.8049 47.603 28.7169 47.724 28.6289C48.208 28.2879 48.692 27.9249 49.176 27.5839C49.517 27.3529 49.715 27.4299 49.913 27.7819C50.375 28.6179 50.837 29.4539 51.31 30.3119C50.474 30.7519 49.638 31.1809 48.725 31.6649Z" fill="#FFA35F"/>
<path d="M72.672 10.2807C71.913 9.70866 71.154 9.13666 70.373 8.55366C70.505 8.41066 70.626 8.24566 70.769 8.11366C71.253 7.67366 71.737 7.24466 72.232 6.82666C72.309 6.76066 72.496 6.73866 72.595 6.78266C73.156 7.03566 73.706 7.31066 74.245 7.60766C74.52 7.76166 74.564 7.95966 74.388 8.17966C73.827 8.88366 73.255 9.57666 72.661 10.2917L72.672 10.2807Z" fill="#FFA35F"/>
<path d="M98.7419 22.0068C99.4789 22.3588 100.183 22.7328 100.777 23.2608C100.865 23.3378 100.942 23.4918 100.942 23.6018C100.92 24.1738 100.887 24.7568 100.832 25.3288C100.799 25.6698 100.634 25.7578 100.315 25.6148C99.5559 25.2738 98.8079 24.9218 98.0049 24.5588C98.2249 23.8218 98.4779 22.9308 98.7529 22.0178H98.7419V22.0068Z" fill="#FFA35F"/>
<path d="M95.1116 53.6096C94.8696 54.4676 94.5616 55.2926 94.0556 56.0296C94.0116 56.0956 93.9126 56.1616 93.8356 56.1726C93.3516 56.2826 92.8786 56.3926 92.3836 56.4696C92.1416 56.5136 92.0206 56.3706 92.0646 56.1396C92.2516 55.2376 92.4496 54.3466 92.6366 53.4336C93.4286 53.4886 94.2426 53.5436 95.1006 53.5986H95.1116V53.6096Z" fill="#FFA35F"/>
<path d="M63.4208 58.1523C63.6298 58.9443 63.8168 59.7033 64.0148 60.4733C63.3108 60.5063 62.6068 60.4403 61.9028 60.3413C61.3858 60.2643 61.0228 60.0113 60.7918 59.5493C60.6818 59.3403 60.5608 59.1313 60.4618 58.9113C60.3188 58.5923 60.3958 58.4713 60.7368 58.4383C61.4298 58.3723 62.1228 58.2953 62.8158 58.2293C63.0138 58.2073 63.2118 58.1743 63.4098 58.1523H63.4208Z" fill="#FFA35F"/>
<path d="M46.712 29.7395C46.811 30.1685 46.899 30.6085 47.02 31.0375C47.13 31.4225 47.251 31.8075 47.405 32.1925C47.482 32.3905 47.471 32.4895 47.295 32.6215C46.888 32.9515 46.503 33.3255 46.085 33.6995C46.195 32.3795 46.206 31.0265 46.635 29.7285H46.712V29.7395Z" fill="#FFA35F"/>
<path d="M67.3584 7.12346C68.6014 6.87046 69.8114 6.63946 71.0214 6.39746C71.0214 6.43046 71.0434 6.45246 71.0434 6.48546C70.3174 6.74946 69.7234 7.21146 69.1514 7.69546C69.1074 7.73946 68.9864 7.72846 68.9094 7.69546C68.4144 7.51946 67.9194 7.33246 67.3584 7.11246V7.12346Z" fill="#FFA35F"/>
</svg>
