<?xml version="1.0" encoding="UTF-8"?>
<svg width="30px" height="30px" viewBox="0 0 30 30" version="1.1" xmlns="http://www.w3.org/2000/svg" xmlns:xlink="http://www.w3.org/1999/xlink">
    <title>sport-type/icon-ugv3</title>
    <defs>
        <linearGradient x1="50%" y1="0%" x2="50%" y2="100%" id="linearGradient-1">
            <stop stop-color="#40D7E2" offset="0%"></stop>
            <stop stop-color="#009BB1" offset="100%"></stop>
        </linearGradient>
        <path d="M15.345435,1 C15.6377107,1.09073781 16.0502456,1.32357658 16.4569396,1.75968434 C16.8700594,2.2026826 17.1829567,2.77509889 17.3582949,3.48840601 C18.0963269,3.32146404 18.9427083,3.26785948 19.9322413,3.33746124 C22.7045417,3.5321514 23.9117582,5.83094879 23.9117582,5.83094879 C23.785567,5.74871228 23.6605478,5.67450817 23.5359193,5.605659 C21.3008107,4.36828636 19.306364,5.22431108 17.597508,6.4544163 C16.8083244,7.02242198 16.1320487,8.0777268 15.7796509,9.0856022 C15.3670876,10.2640705 15.3159079,11.5056506 15.3159079,12.7514382 L15.3159079,21.0274913 C15.3159079,21.1594522 15.2846531,21.3575848 15.2135484,21.587847 C14.9345993,22.4909187 14.0344612,23.8981193 11.9200742,23.8568098 C9.26732339,23.8047904 7.88781482,22.5582379 6.66731502,21.0274913 C6.33939853,20.6159182 6.08040311,20.1459969 5.87694784,19.6788219 C4.17960305,20.2488021 3.15814369,20.9803562 3.15814369,21.7783297 C3.15814369,23.5978604 8.46012921,25.0727627 15.0001953,25.0727627 C21.5402615,25.0727627 26.8418563,23.5978604 26.8418563,21.7783297 C26.8418563,21.1299762 26.1675335,20.5254699 25.0037178,20.0158808 C24.5528332,21.0565764 23.7235379,22.1649765 22.2057542,22.9022925 C18.7411601,24.5848898 16.7560898,23.7973317 15.7930514,22.4019885 C15.885253,22.2111233 15.962218,22.0183456 16.0212114,21.8270979 C16.1118503,21.5337239 16.1599046,21.2571797 16.1599046,21.0273 L16.1599046,12.7516294 C16.1599046,11.6852322 16.1923314,10.4555095 16.5779375,9.35315773 C16.9014246,8.42828384 17.5214416,7.58067402 18.0973113,7.11976706 C19.1990428,6.23811515 20.3445311,5.8261676 21.3153832,5.82807345 C22.5772956,5.83075754 25.5203254,5.95468606 25.5203254,11.0919818 L22.0182255,12.9283423 L22.0182255,10.8617196 C22.0182255,10.5725531 21.9197728,10.2856815 21.7177887,10.0745441 C21.4548577,9.79991237 20.9903333,9.5971898 20.214433,10.0190822 C18.8440801,10.7643496 18.8813687,11.9376156 18.8872016,12.8111501 L18.8870618,15.6140587 C18.8870386,15.6982925 18.8870153,15.7827678 18.8869918,15.8672261 L18.8861042,18.9021555 C18.8861042,18.9021555 18.7817913,20.8762143 20.4797081,20.6164999 C21.2865976,20.4930776 21.7347392,19.8299428 21.9741566,19.1177727 L21.8399168,19.090152 C21.8849474,19.0987388 21.9298242,19.1074076 21.9745454,19.1161579 C22.2385475,18.3306219 22.2483808,17.4850118 22.2057542,17.2398305 L20.1081667,18.3307074 L20.1081667,14.9720152 L25.5265763,12.0971798 L25.5269634,17.2450637 C25.533275,17.3346762 25.6073888,18.562234 25.041157,19.9276174 C27.4913297,20.7838246 29,21.9529291 29,23.2421397 C29,25.8698831 22.7318506,28 15.0001953,28 C7.26814941,28 1,25.8698831 1,23.2421397 C1,21.801559 2.88399844,20.5109442 5.85965375,19.6385469 C5.77288014,19.4365078 5.69643776,19.2349865 5.62926509,19.0392801 C5.32374946,18.1480658 5.18154014,17.2109521 5.18154014,16.2707784 L5.18154014,4.84411065 L5.19,4.844 L5.13984402,4.7095533 L15.1413789,1.00546779 L15.345435,1 Z M8.40370563,4.16524187 L6.1677152,4.99384774 C7.17404389,5.34822605 7.69957827,6.26631706 7.97181208,7.06411398 C8.17067072,7.645507 8.25896552,8.25749964 8.25896552,8.87025728 L8.25896552,17.2075096 C8.25896552,18.2983865 8.94891515,20.2204259 10.4874325,20.5841791 C11.9671518,20.9335739 12.024064,19.9914809 12.026253,19.4982096 L12.026,19.282 L11.9660648,19.7926283 C11.3032248,19.7153826 10.8744336,19.2715969 10.642592,18.6166736 C10.499898,18.2135809 10.4535625,17.8166069 10.4543644,17.5341268 L10.4543645,9.56804365 C10.4543645,7.39507587 10.0285561,5.9059886 9.33110946,4.97095725 C8.97765518,4.497099 8.63714364,4.2562312 8.40370563,4.16524187 Z M10.8265907,3.26742321 L9.15112069,3.8871017 C9.37222005,4.05737324 9.60643849,4.29068661 9.8369939,4.59978057 C10.6207316,5.65049803 11.0836338,7.26930546 11.0836338,9.56804365 L11.0836313,17.5358839 C11.0834762,17.5905234 11.0882024,17.688017 11.102806,17.8131323 C11.1267728,18.0184647 11.1700596,18.2227195 11.2363304,18.409926 C11.394452,18.8565995 11.6472667,19.1215518 12.0260539,19.1711229 L12.0263405,11.6716536 C12.0263405,10.2337069 12.309206,8.80499135 12.8979969,7.48915403 C12.769119,5.95037948 12.383336,4.84404931 11.8266999,4.09778673 C11.4345587,3.57205676 11.0583477,3.33309873 10.8265907,3.26742321 Z M13.2012554,2.38838076 L11.6014867,2.97982294 C11.8357231,3.15260148 12.0862456,3.3963523 12.3325864,3.72661287 C12.8372431,4.40318846 13.2100814,5.31921774 13.4109407,6.50585925 C13.5384315,6.29245222 13.6786878,6.08296799 13.8305237,5.88296817 C14.1581037,5.45122192 14.5032601,5.0690457 14.8797517,4.74007669 C14.6916617,4.10617357 14.4402458,3.59761173 14.1432705,3.19952707 C13.7823691,2.71575174 13.4349584,2.47485781 13.2012554,2.38838076 Z M15.2502177,1.62997981 L13.9542109,2.10880105 C14.1779605,2.27962952 14.4154267,2.51504612 14.6491302,2.82831722 C14.9518028,3.23403893 15.2092569,3.73141876 15.4106175,4.32836277 C15.8149725,4.04904141 16.2571664,3.82472035 16.7499604,3.65815611 L16.7825661,3.79391396 C16.6408886,3.10854296 16.3648585,2.58009435 15.994971,2.1834551 C15.7518294,1.92272851 15.5119733,1.75647759 15.3249846,1.66411062 L15.2502177,1.62997981 Z" id="path-2"></path>
        <filter x="-12.5%" y="-13.0%" width="125.0%" height="125.9%" filterUnits="objectBoundingBox" id="filter-3">
            <feGaussianBlur stdDeviation="3" in="SourceAlpha" result="shadowBlurInner1"></feGaussianBlur>
            <feOffset dx="0" dy="1" in="shadowBlurInner1" result="shadowOffsetInner1"></feOffset>
            <feComposite in="shadowOffsetInner1" in2="SourceAlpha" operator="arithmetic" k2="-1" k3="1" result="shadowInnerInner1"></feComposite>
            <feColorMatrix values="0 0 0 0 1   0 0 0 0 1   0 0 0 0 1  0 0 0 0.5 0" type="matrix" in="shadowInnerInner1"></feColorMatrix>
        </filter>
    </defs>
    <g id="sport-type/icon-ugv3" stroke="none" stroke-width="1" fill="none" fill-rule="evenodd">
        <g id="Combined-Shape" fill-rule="nonzero">
            <use fill="url(#linearGradient-1)" xlink:href="#path-2"></use>
            <use fill="black" fill-opacity="1" filter="url(#filter-3)" xlink:href="#path-2"></use>
        </g>
    </g>
</svg>