<?xml version="1.0" encoding="UTF-8"?>
<svg width="30px" height="30px" viewBox="0 0 30 30" version="1.1" xmlns="http://www.w3.org/2000/svg" xmlns:xlink="http://www.w3.org/1999/xlink">
    <title>trivial-type/footer/regulations</title>
    <g id="trivial-type/footer/regulations" stroke="none" stroke-width="1" fill="none" fill-rule="evenodd">
        <path d="M8.89201322,1.60721315 C12.9766569,1.63125794 17.0615933,1.62859429 21.1463102,1.60883889 C22.1644349,1.60395553 22.8624751,1.99003675 23.3742445,2.90196679 C25.4198586,6.54709731 27.5060778,10.1689949 29.5742991,13.8011771 C29.7016012,14.0247757 29.8337321,14.2533316 29.9106255,14.4966856 C30.0388788,14.9023003 30.0462682,15.3014038 29.8186607,15.7016911 C27.6676199,19.4848875 25.5114577,23.2652722 23.3935593,27.0673361 C22.8704498,28.0064205 22.1588014,28.4091495 21.109656,28.3923538 C19.0738455,28.359872 17.0371572,28.382883 15.0008346,28.382883 C12.940149,28.382883 10.8793171,28.3668271 8.81885106,28.3897641 C7.82918644,28.4007886 7.14629078,28.0115259 6.64864173,27.1273422 C4.59256538,23.4740727 2.49771308,19.8431483 0.42934549,16.196834 C0.246220589,15.8740144 0.115918771,15.5087985 0.0261487938,15.1467641 C-0.0590851296,14.8033753 0.0763380396,14.4848472 0.254926887,14.1711284 C2.38365327,10.4319563 4.51611092,6.69478188 6.61001211,2.93563236 C7.13268262,1.9972138 7.8422093,1.60106991 8.89201322,1.60721315 Z M20.9140935,3.22629463 C18.9510063,3.24602153 16.9876264,3.2341091 15.0243928,3.23418309 C13.0123601,3.23418309 11.0003274,3.23921443 8.9883678,3.2303356 C8.52964102,3.22833786 8.2063374,3.38971063 7.97082839,3.80420411 C5.94226102,7.37475243 3.90527999,10.9403434 1.86390924,14.5034187 C1.66395704,14.8523568 1.6700295,15.1586765 1.8693964,15.5065048 C3.89298875,19.0372463 5.91467888,22.5690978 7.91793215,26.1116038 C8.19002224,26.5926885 8.53754253,26.7738907 9.0701631,26.7722741 C13.0088483,26.7602764 16.9475335,26.7599065 20.8862187,26.7722741 C21.4612002,26.7740386 21.8335224,26.5650161 22.1242689,26.0504878 C24.1082073,22.5394277 26.1113874,19.0393921 28.1174209,15.5411322 C28.3303959,15.1697011 28.3404191,14.8486573 28.1243713,14.4721948 C26.1047297,10.9532917 24.0883804,7.43231686 22.0930286,3.8992816 C21.8128175,3.40302888 21.4609807,3.22093883 20.9140935,3.22629463 Z M20.6181672,4.26592557 C20.997952,4.26459375 21.2153899,4.38956331 21.4030509,4.72044778 C23.2825138,8.03587767 25.1738289,11.3445005 27.0692411,14.6506076 C27.2083224,14.8932956 27.2159313,15.0907757 27.076411,15.3345736 C25.1649031,18.6739023 23.2583702,22.0161907 21.357105,25.3614386 C21.2051472,25.6286915 21.0143403,25.7329438 20.7083761,25.731242 C18.7940149,25.7202175 16.8795805,25.7256187 14.9651461,25.7256927 C13.0873659,25.7256927 11.2095126,25.7185157 9.33180564,25.7323902 C8.9963571,25.7347935 8.79391739,25.6208485 8.62791244,25.328439 C6.74018223,22.0036863 4.84564794,18.6829291 2.94438274,15.3660934 C2.78949843,15.096029 2.8003996,14.8836029 2.95345485,14.61672 C4.83803908,11.332736 6.71772145,8.04586636 8.58277138,4.75056182 C8.78535742,4.39259691 9.01845208,4.26377986 9.42442894,4.26539243 C13.1556262,4.28027969 16.8869699,4.27953978 20.6181672,4.26592557 Z M15.5523456,6.41156933 C15.1370772,6.3882624 14.7902885,6.65403544 14.6855203,7.10471016 C14.6414767,7.29412524 14.6318924,7.4951568 14.6315266,7.69093504 C14.6278685,9.72625932 14.6293317,11.7615836 14.6291854,13.7969079 C14.6291854,13.8956109 14.6236983,13.9945359 14.6288928,14.0929429 C14.6404524,14.3134339 14.5389033,14.3957851 14.3232944,14.4031101 C13.8969785,14.4176122 13.8468624,14.3792113 13.8465697,13.9291285 C13.8455455,12.2885423 13.8512521,10.6478821 13.8407899,9.00736988 C13.8391072,8.74070896 13.8008434,8.46413334 13.7213893,8.21071667 C13.6148652,7.87117533 13.3454821,7.7004058 12.9905724,7.70662098 C12.6392477,7.71276217 12.3760102,7.87879633 12.2691203,8.22507078 C12.2045912,8.43394531 12.1582064,8.65813582 12.1565969,8.87574119 C12.1442325,10.5779613 12.140428,12.2801814 12.1451836,13.9824015 C12.1459883,14.2659322 12.0876049,14.4105831 11.7634965,14.4093993 C11.4464849,14.4082894 11.4079284,14.2538717 11.4102696,13.9952758 C11.4183174,13.0948142 11.4223414,12.1942047 11.4084406,11.2938911 C11.4030997,10.9509462 11.3698841,10.6038579 11.3046234,10.2674981 C11.2321197,9.89392126 10.9549814,9.71782442 10.5937067,9.68223511 C10.238358,9.64716372 9.9029095,9.84020433 9.78189928,10.1869967 C9.70668857,10.4026043 9.67061963,10.6427028 9.66879057,10.8722206 C9.65854787,12.191985 9.66381554,13.5118973 9.66381554,14.8318097 C9.66381554,16.1393657 9.65452395,17.4469957 9.66696152,18.7544037 C9.6758873,19.7008872 9.85447615,20.6183666 10.2395286,21.4851625 C10.8423849,22.842144 11.9502796,23.4786083 13.349506,23.7043526 C15.9521037,24.1242474 18.1237031,23.3405425 19.5499264,20.9878 C20.7395432,19.0252081 22.0900436,17.1627991 23.347116,15.2411239 C23.4877336,15.0261822 23.5712848,14.700255 23.5312651,14.4503159 C23.3978905,13.6173335 22.4791932,13.3119017 21.8458283,13.8881379 C21.1393013,14.5310393 20.475062,15.2212205 19.7787045,15.8759604 C19.6612792,15.9864278 19.4746425,16.0216472 19.3199777,16.091568 C19.2760072,15.9355225 19.1944314,15.779625 19.193773,15.6233576 L19.1877645,12.4964087 L19.1876273,9.36940426 C19.1875542,9.20906735 19.1909928,9.04784255 19.1758482,8.88868949 C19.1316583,8.42691623 18.7874303,8.05962855 18.3404826,7.9854903 C17.9298234,7.91734526 17.4708039,8.16380684 17.3088229,8.58444151 C17.2271739,8.79642363 17.1897149,9.03844579 17.1882517,9.2672237 C17.1781553,10.846102 17.1787406,12.4250543 17.1865689,14.0040066 C17.187959,14.2801383 17.1106998,14.4025182 16.8144662,14.4084374 C16.4923331,14.4148746 16.3928326,14.2990798 16.3944422,13.978184 C16.4050507,11.8565871 16.4000025,9.73484219 16.399344,7.61317127 C16.3992709,7.4776211 16.4055628,7.34029517 16.3871259,7.20689072 C16.3255966,6.76176527 15.9776373,6.43546819 15.5523456,6.41156933 Z" id="Combined-Shape" fill="#657381" fill-rule="nonzero"></path>
    </g>
</svg>